<?xml version="1.0" encoding="UTF-8"?><svg id="Layer_2" xmlns="http://www.w3.org/2000/svg" viewBox="0 0 134.93 187.97"><defs><style>.cls-1{fill:none;stroke:#000;stroke-miterlimit:10;stroke-width:2.95px;}.cls-2{fill:#a87c50;}.cls-2,.cls-3,.cls-4,.cls-5{fill-rule:evenodd;}.cls-2,.cls-3,.cls-4,.cls-5,.cls-6,.cls-7{stroke-width:0px;}.cls-3{fill:#8a5e3c;}.cls-4{fill:#e9c09a;}.cls-5{fill:#c3996c;}.cls-7{fill:#00adee;}</style></defs><g id="Layer_1-2"><polygon class="cls-7" points="64.68 88.39 88.22 106.79 73.72 156.8 64.68 187.97 55.64 156.8 38.09 96.3 64.68 88.39"/><path class="cls-7" d="m94.51,126.59c-.46,0-.91-.13-1.3-.36l-10.36-6.31c-.92-.56-1.37-1.64-1.13-2.68l.58-2.5-8.76,7.42c-.45.38-1.02.59-1.61.59-.75,0-1.49-.35-1.96-.95-.47-.59-.65-1.36-.47-2.11l1.62-7c-.19-.06-.38-.14-.55-.25l-11.04-6.72-1.23,14.03c-.11,1.29-1.18,2.27-2.48,2.27h-.08l-12.21-1.07c-1.07-.1-1.95-.86-2.2-1.9l-.6-2.52-2.19,5.07c-.72,1.66-2.29,2.7-4.09,2.7-2.12,0-3.87-1.38-4.36-3.44l-.28-1.18c-.13.02-.26.03-.39.03h-.09l-2.65-.24-22.48-1.96c-1.37-.12-2.38-1.33-2.26-2.7L7.98,45.9c.11-1.29,1.18-2.27,2.48-2.27h.08l15.09,1.32c.65.06,1.23.36,1.64.82l1.13-2.63-7.46-17.44c-.54-1.26.05-2.72,1.31-3.27l11.16-4.77c.31-.13.64-.2.98-.2.71,0,1.39.31,1.87.84l1.71,1.93-.54-6.42c-.1-1.18.28-2.3,1.07-3.16.8-.87,1.93-1.36,3.11-1.36s2.29.5,3.1,1.41l1.42,1.6c.16-.12.33-.22.51-.3l23.08-9.87c.31-.13.64-.2.98-.2,1,0,1.9.59,2.29,1.51l13.8,32.27c.33.05.65.16.94.34l12.83,7.81c.56.34.94.87,1.11,1.47l2.88-2.44c.76-.64,1.67-.98,2.64-.98,1.25,0,2.46.59,3.25,1.57.77.97,1.06,2.24.77,3.47l-.69,2.98,21.29,12.97c.57.34.97.89,1.12,1.54.16.65.05,1.32-.3,1.89l-1.82,2.99-34.17,56.08c-.45.74-1.26,1.19-2.13,1.19Z"/><path class="cls-7" d="m70.69,3.87c.22,0,.42.13.51.34l14.55,34.02.2-.33c.1-.17.29-.27.48-.27.1,0,.2.03.29.08l12.83,7.81c.2.12.31.37.25.6l-.58,2.51c-.09.38.22.68.54.68.12,0,.25-.04.36-.13l5.67-4.8c.43-.36.92-.52,1.39-.52,1.29,0,2.48,1.18,2.13,2.67l-1.22,5.3.44-.38c.1-.09.23-.13.36-.13.1,0,.2.03.29.08l21.61,13.16c.26.16.35.5.19.76l-1.82,2.99-34.17,56.08c-.1.17-.29.27-.47.27-.1,0-.2-.03-.29-.08l-10.36-6.31c-.2-.12-.31-.37-.25-.6l1.51-6.55c.09-.38-.22-.68-.54-.68-.12,0-.25.04-.36.13l-11.93,10.1c-.11.09-.23.13-.36.13-.33,0-.63-.3-.54-.68l2.12-9.16c.09-.38-.22-.68-.54-.68-.12,0-.25.04-.35.13l-.38.32c-.1.09-.23.13-.36.13-.1,0-.2-.03-.29-.08l-12.94-7.87c-.09-.06-.19-.08-.29-.08-.27,0-.53.2-.55.51l-1.42,16.24c-.03.29-.27.51-.55.51-.02,0-.03,0-.05,0l-12.07-1.06c-.24-.02-.44-.19-.49-.42l-1.56-6.55c-.07-.28-.3-.43-.54-.43-.2,0-.41.11-.51.34l-3.84,8.87c-.45,1.03-1.38,1.53-2.32,1.53-1.09,0-2.17-.67-2.48-1.95l-.79-3.34c-.07-.28-.3-.43-.54-.43-.2,0-.41.11-.51.33l-.2.46c-.09.2-.29.33-.51.33-.02,0-.03,0-.05,0l-2.51-.23-22.48-1.96c-.31-.03-.53-.3-.51-.6l6.03-68.91c.03-.29.27-.51.55-.51.02,0,.03,0,.05,0l14.96,1.31c.24.02.44.19.49.42l.6,2.5c.07.28.3.43.54.43.2,0,.41-.11.51-.34l2.82-6.52c.06-.14.06-.3,0-.44l-7.69-17.99c-.12-.28.01-.61.29-.73l11.15-4.77c.07-.03.14-.04.22-.04.16,0,.31.07.42.19l4.46,5.04c.12.13.26.19.41.19.3,0,.59-.24.56-.6l-.88-10.56c-.12-1.44,1.04-2.42,2.25-2.42.59,0,1.18.23,1.65.76l2.88,3.25c.12.13.26.19.41.19.3,0,.59-.24.56-.6l-.04-.48c-.02-.24.12-.46.34-.56l23.08-9.87c.07-.03.15-.04.22-.04m0-3.87c-.6,0-1.19.12-1.74.36l-22.36,9.56-.44-.5c-1.16-1.31-2.82-2.06-4.55-2.06s-3.37.72-4.53,1.99c-1.16,1.26-1.71,2.9-1.57,4.63l.15,1.74c-.4-.12-.83-.18-1.25-.18-.6,0-1.19.12-1.74.36l-11.15,4.77c-1.09.46-1.93,1.32-2.37,2.42-.44,1.1-.43,2.3.04,3.39l7.11,16.63c-.16-.03-.32-.05-.48-.07l-14.96-1.31h-.17s-.22-.02-.22-.02c-2.31,0-4.2,1.74-4.41,4.04L.02,114.64c-.1,1.18.26,2.32,1.02,3.23.76.91,1.83,1.46,3,1.56l22.48,1.96,1.76.16c.77,2.76,3.28,4.67,6.17,4.67,2.59,0,4.84-1.48,5.87-3.86l.33-.75c.72.71,1.67,1.17,2.73,1.26l12.07,1.06h.17s.22.02.22.02c2.31,0,4.21-1.74,4.41-4.04l.96-10.93,7.72,4.69-1.29,5.57c-.31,1.32,0,2.69.84,3.75.85,1.07,2.11,1.68,3.47,1.68,1.04,0,2.05-.37,2.85-1.05l5.18-4.39c.33.95.98,1.78,1.88,2.33l10.36,6.31c.69.42,1.49.65,2.3.65,1.53,0,2.98-.81,3.78-2.12l34.17-56.08,1.82-2.98c.62-1.01.8-2.2.52-3.35-.28-1.15-.99-2.12-2-2.74l-20.1-12.24.37-1.62c.42-1.81,0-3.67-1.14-5.11-1.15-1.44-2.93-2.3-4.76-2.3-1.41,0-2.8.51-3.89,1.44l-1.3,1.1c-.14-.11-.28-.21-.43-.3l-12.83-7.81c-.17-.1-.34-.19-.52-.27l-13.45-31.44c-.7-1.63-2.29-2.68-4.07-2.68h0Z"/><polygon class="cls-6" points="129.46 65.4 128.11 67.61 95.76 120.71 94.42 122.91 92.22 121.57 87 118.39 85.41 117.42 85.83 115.61 88.15 105.56 79.59 112.81 73.67 117.83 75.41 110.26 76.53 105.41 73.42 108.05 72 109.25 70.41 108.28 56.84 100.02 55.44 116.03 55.21 118.6 52.65 118.38 46.56 117.84 44.71 117.68 44.28 115.87 41.89 105.84 37.45 116.13 34.36 123.25 32.57 115.7 31.42 110.86 29.8 114.6 29.06 116.31 27.21 116.14 8.21 114.49 5.63 114.26 5.86 111.69 11.28 49.75 11.51 47.18 14.07 47.4 23.04 48.19 24.89 48.35 25.32 50.16 26.75 56.15 29.87 48.91 32.33 43.21 25.67 27.64 24.66 25.27 27.03 24.26 32.65 21.85 34.36 21.12 35.59 22.51 42.43 30.23 41.49 19.06 40.85 11.32 46 17.13 49.3 20.86 48.95 16.8 48.8 14.95 50.51 14.21 68.05 6.71 70.42 5.7 71.44 8.07 85.74 41.5 86.95 39.51 89.15 40.85 96.84 45.53 98.43 46.5 98.01 48.31 96.63 54.31 102.64 49.21 108.56 44.2 106.82 51.76 105.87 55.87 107.77 54.26 109.19 53.06 110.79 54.03 127.25 64.06 129.46 65.4"/><polygon class="cls-5" points="47.38 115.57 43.2 97.99 35.67 115.4 32.72 103 28.02 113.88 9.02 112.21 14.44 50.27 23.4 51.05 26.63 64.61 27.15 63.39 32.83 50.23 35.61 61.89 39.68 52.48 58.89 54.16 53.46 116.1 47.38 115.57"/><path class="cls-6" d="m15.78,51.87l6.44.56,2,8.42,2,8.42,2.29-5.3h0s3.93-9.09,3.93-9.09l.29,1.23,2.48,10.43,4.25-9.84,1.15-2.66,16.68,1.46-5.16,59.01-3.56-.31-2.48-10.43-2.48-10.43-3.77,8.73-.48,1.11-3.27,7.57-.47-1.96-2.48-10.43-4.26,9.85-1.79,4.12-16.48-1.44,5.16-59.01m17.46-6.28l-3.51,8.13-2.69,6.23-1.95-8.19-.49-2.07-2.12-.19-6.44-.56-2.94-.26-.26,2.94-5.16,59.01-.26,2.94,2.94.26,16.48,1.44,2.12.19.84-1.95,1.79-4.12.74-1.7.43,1.8.47,1.96,2.05,8.63,3.52-8.14,3.27-7.57.48-1.1.26-.59.43,1.8,2.48,10.43.49,2.07,2.12.19,3.56.31,2.94.26.26-2.94,5.16-59.01.26-2.94-2.94-.26-16.68-1.46-2.12-.19-.84,1.95-1.15,2.66-.73,1.7-.43-1.8-.29-1.23-2.06-8.62h0Z"/><polygon class="cls-3" points="52.64 63.95 52.41 56.61 50.91 63.8 49.41 70.99 49.41 70.99 49.64 78.33 49.87 85.67 51.37 78.48 52.87 71.29 52.87 71.29 52.64 63.95"/><polygon class="cls-4" points="20.14 71.76 19.82 61.52 17.72 71.55 15.63 81.58 15.63 81.58 15.94 91.82 16.26 102.07 18.36 92.04 20.45 82 20.46 82 20.14 71.76"/><polygon class="cls-2" points="42 77.77 41.52 72.68 40.16 77.61 38.8 82.54 38.8 82.54 39.28 87.63 39.76 92.72 41.12 87.79 42.48 82.86 42.48 82.86 42 77.77"/><line class="cls-1" x1="24.85" y1="93.79" x2="23.5" y2="109.15"/><line class="cls-1" x1="30.71" y1="74.45" x2="30.02" y2="82.42"/><line class="cls-1" x1="41.29" y1="54.11" x2="40.06" y2="68.14"/><line class="cls-1" x1="47.31" y1="114.93" x2="49" y2="95.55"/><line class="cls-1" x1="20.76" y1="50.7" x2="20.19" y2="57.18"/><line class="cls-1" x1="15.38" y1="112.14" x2="15.71" y2="108.47"/><line class="cls-1" x1="32.43" y1="54.88" x2="31.16" y2="69.39"/><polygon class="cls-5" points="88.93 116.49 92.99 98.87 78.52 111.14 81.38 98.72 72.34 106.38 56.05 96.45 88.4 43.35 96.09 48.03 92.96 61.61 93.97 60.74 104.9 51.48 103.63 57.03 102.21 63.15 110.03 56.53 126.5 66.56 94.15 119.66 88.93 116.49"/><path class="cls-6" d="m88.89,45.37l5.52,3.36-1.94,8.43-1.94,8.43,4.4-3.73h0s7.55-6.41,7.55-6.41l-.28,1.23-2.41,10.45,8.18-6.93,2.21-1.88,14.3,8.71-30.82,50.58-3.05-1.86,2.41-10.45,2.41-10.45-7.26,6.15-.92.78-6.3,5.33.45-1.97,2.41-10.45-8.18,6.93-3.43,2.9-14.12-8.61,30.82-50.58m-.98-4.05l-1.53,2.52-30.82,50.58-1.53,2.52,2.52,1.53,14.12,8.61,1.81,1.11,1.62-1.37,3.43-2.9,1.41-1.2-.42,1.8-.45,1.97-1.99,8.65,6.77-5.74,6.3-5.33.92-.77.49-.42-.41,1.8-2.41,10.45-.48,2.07,1.82,1.11,3.05,1.86,2.52,1.53,1.53-2.52,30.82-50.58,1.53-2.52-2.52-1.53-14.3-8.71-1.82-1.11-1.62,1.38-2.21,1.88-1.41,1.2.42-1.8.28-1.24,1.98-8.63-6.76,5.73-5.18,4.39,1.89-8.21.48-2.07-1.82-1.11-5.52-3.36-2.52-1.53h0Z"/><polygon class="cls-3" points="116.56 72.56 119.61 65.88 115.08 71.66 110.54 77.43 110.54 77.43 107.49 84.11 104.43 90.79 108.97 85.02 113.51 79.24 113.51 79.24 116.56 72.56"/><polygon class="cls-4" points="83.97 65.14 88.22 55.82 81.9 63.88 75.57 71.94 75.56 71.93 71.3 81.25 67.05 90.58 73.37 82.52 79.7 74.46 79.71 74.46 83.97 65.14"/><polygon class="cls-2" points="97.09 80.18 98.92 75.4 95.51 79.22 92.11 83.03 92.11 83.03 90.28 87.8 88.45 92.58 91.86 88.77 95.26 84.95 95.26 84.95 97.09 80.18"/><line class="cls-1" x1="78.41" y1="86.97" x2="70.39" y2="100.14"/><line class="cls-1" x1="110.75" y1="58.71" x2="103.43" y2="70.73"/><line class="cls-1" x1="89.15" y1="115.88" x2="99.27" y2="99.27"/><line class="cls-1" x1="93.87" y1="46.54" x2="90.49" y2="52.1"/><line class="cls-1" x1="61.79" y1="99.21" x2="63.7" y2="96.06"/><line class="cls-1" x1="102.47" y1="55.47" x2="94.89" y2="67.9"/><polygon class="cls-5" points="28.64 26.92 34.25 24.52 46.23 38.05 44.65 19.14 53.1 28.69 52.12 16.88 69.66 9.38 94.11 66.55 85.83 70.09 76.6 59.66 76.71 60.98 77.91 75.26 69.96 66.3 70.82 76.51 53.09 84.09 28.64 26.92"/><path class="cls-6" d="m68.88,11.31l23.29,54.46-5.94,2.54-5.74-6.48-5.74-6.48.48,5.75h0s.83,9.86.83,9.86l-.84-.95-7.11-8.03.89,10.68.24,2.89-15.4,6.58L30.57,27.7l3.28-1.4,7.11,8.03,7.11,8.03-.79-9.48-.1-1.2-.69-8.22,1.34,1.51,7.11,8.03-.89-10.69-.37-4.48,15.21-6.5m1.55-3.87l-2.71,1.16-15.21,6.5-1.95.84.18,2.12.37,4.48.15,1.85-1.23-1.39-1.34-1.51-5.88-6.64.74,8.84.69,8.22.1,1.2.05.65-1.23-1.38-7.11-8.03-1.41-1.59-1.96.84-3.28,1.4-2.71,1.16,1.16,2.71,23.29,54.46,1.16,2.71,2.71-1.16,15.4-6.58,1.96-.84-.18-2.12-.24-2.89-.15-1.84,1.23,1.39.84.95,5.88,6.62-.74-8.83-.57-6.76,5.58,6.3,1.41,1.59,1.95-.84,5.94-2.54,2.71-1.16-1.16-2.71-23.29-54.46-1.16-2.71h0Z"/><polygon class="cls-3" points="54.99 67.64 58.65 74.01 56.58 66.96 54.51 59.91 54.52 59.91 50.85 53.55 47.18 47.18 49.25 54.23 51.32 61.28 51.32 61.28 54.99 67.64"/><polygon class="cls-4" points="78.94 50.29 84.06 59.17 81.17 49.34 78.28 39.5 78.29 39.5 73.17 30.62 68.06 21.74 70.94 31.57 73.83 41.41 73.83 41.41 78.94 50.29"/><polygon class="cls-2" points="62.5 51.72 65.33 55.98 64.2 51 63.07 46.01 63.07 46.01 60.24 41.75 57.42 37.49 58.54 42.47 59.67 47.46 59.67 47.46 62.5 51.72"/><line class="cls-1" x1="69.74" y1="42.63" x2="63.68" y2="28.45"/><line class="cls-1" x1="68.62" y1="75.83" x2="63.09" y2="62.88"/><line class="cls-1" x1="34.62" y1="25.05" x2="42.27" y2="42.94"/><line class="cls-1" x1="88.33" y1="69.15" x2="85.77" y2="63.17"/><line class="cls-1" x1="64.08" y1="12.45" x2="65.53" y2="15.83"/><line class="cls-1" x1="76.07" y1="70.97" x2="70.35" y2="57.58"/></g></svg>