<?xml version="1.0" encoding="UTF-8"?><svg id="Layer_2" xmlns="http://www.w3.org/2000/svg" viewBox="0 0 134.93 206.29"><defs><style>.cls-1{stroke-width:2.95px;}.cls-1,.cls-2{fill:none;stroke:#000;stroke-miterlimit:10;}.cls-3{fill:#a87c50;}.cls-3,.cls-4,.cls-5,.cls-6{fill-rule:evenodd;}.cls-3,.cls-4,.cls-5,.cls-6,.cls-7,.cls-8{stroke-width:0px;}.cls-4{fill:#8a5e3c;}.cls-5{fill:#e9c09a;}.cls-6{fill:#c3996c;}.cls-2{stroke-linecap:round;stroke-width:2.52px;}.cls-8{fill:#46bc81;}</style></defs><g id="Layer_1-2"><polygon class="cls-8" points="64.68 106.72 88.22 125.12 73.72 175.12 64.68 206.29 55.64 175.12 38.09 114.63 64.68 106.72"/><path class="cls-8" d="m94.51,144.92c-.46,0-.9-.13-1.29-.36l-10.36-6.31c-.92-.56-1.37-1.64-1.13-2.69l.58-2.5-8.77,7.42c-.45.38-1.02.59-1.61.59-.75,0-1.49-.35-1.96-.95-.47-.59-.65-1.36-.47-2.11l1.62-7c-.19-.06-.38-.14-.55-.25l-11.04-6.72-1.23,14.03c-.11,1.29-1.18,2.27-2.48,2.27h-.08l-12.21-1.07c-1.07-.09-1.95-.86-2.2-1.9l-.6-2.52-2.19,5.07c-.72,1.66-2.29,2.69-4.09,2.69-2.12,0-3.87-1.38-4.36-3.44l-.28-1.18c-.13.02-.26.03-.39.03h-.09l-2.65-.24-22.48-1.96c-1.37-.12-2.38-1.33-2.26-2.69l6.04-68.92c.11-1.29,1.18-2.27,2.48-2.27h.08l15.09,1.32c.65.06,1.23.36,1.64.82l1.13-2.63-7.46-17.44c-.26-.61-.27-1.29-.02-1.91.25-.62.72-1.1,1.33-1.36l11.15-4.77c.31-.13.64-.2.98-.2.71,0,1.39.31,1.87.84l1.71,1.93-.54-6.42c-.1-1.18.28-2.3,1.07-3.16.8-.87,1.93-1.36,3.11-1.36s2.29.5,3.1,1.41l1.42,1.6c.16-.12.33-.22.52-.3l23.08-9.87c.31-.13.64-.2.98-.2,1,0,1.9.59,2.29,1.51l13.8,32.27c.33.05.65.16.94.34l12.83,7.81c.56.34.94.87,1.11,1.47l2.88-2.44c.76-.64,1.67-.98,2.64-.98,1.25,0,2.46.59,3.25,1.57.77.97,1.06,2.24.77,3.47l-.69,2.98,21.29,12.97c.57.34.97.89,1.12,1.54s.05,1.32-.29,1.89l-1.83,2.99-34.17,56.08c-.45.74-1.26,1.19-2.13,1.19Z"/><path class="cls-8" d="m70.69,22.2c.22,0,.42.13.51.34l14.55,34.02.2-.33c.1-.17.29-.27.48-.27.1,0,.2.03.29.08l12.83,7.81c.2.12.31.37.25.6l-.58,2.51c-.09.38.22.68.54.68.12,0,.25-.04.36-.13l5.67-4.8c.43-.36.92-.52,1.39-.52,1.29,0,2.48,1.18,2.13,2.67l-1.22,5.3.44-.38c.1-.09.23-.13.36-.13.1,0,.2.03.29.08l21.61,13.16c.26.16.35.5.19.76l-1.82,2.99-34.17,56.08c-.1.17-.29.27-.47.27-.1,0-.2-.03-.29-.08l-10.36-6.31c-.2-.12-.31-.37-.25-.6l1.51-6.55c.09-.38-.22-.68-.54-.68-.12,0-.25.04-.36.13l-11.93,10.1c-.11.09-.23.13-.36.13-.33,0-.63-.3-.54-.68l2.12-9.16c.09-.38-.22-.68-.54-.68-.12,0-.25.04-.35.13l-.38.32c-.1.09-.23.13-.36.13-.1,0-.2-.03-.29-.08l-12.94-7.87c-.09-.06-.19-.08-.29-.08-.27,0-.53.2-.55.51l-1.42,16.24c-.03.29-.27.51-.55.51-.02,0-.03,0-.05,0l-12.07-1.06c-.24-.02-.44-.19-.49-.42l-1.56-6.55c-.07-.28-.3-.43-.54-.43-.2,0-.41.11-.51.34l-3.84,8.87c-.45,1.03-1.38,1.53-2.32,1.53-1.09,0-2.17-.67-2.48-1.95l-.79-3.34c-.07-.28-.3-.43-.54-.43-.2,0-.41.11-.51.33l-.2.46c-.09.2-.29.33-.51.33-.02,0-.03,0-.05,0l-2.51-.23-22.48-1.96c-.31-.03-.53-.3-.51-.6l6.03-68.91c.03-.29.27-.51.55-.51.02,0,.03,0,.05,0l14.96,1.31c.24.02.44.19.49.42l.6,2.5c.07.28.3.43.54.43.2,0,.41-.11.51-.34l2.82-6.52c.06-.14.06-.3,0-.44l-7.69-17.99c-.12-.28.01-.61.29-.73l11.15-4.77c.07-.03.14-.04.22-.04.16,0,.31.07.42.19l4.46,5.04c.12.13.26.19.41.19.3,0,.59-.24.56-.6l-.88-10.56c-.12-1.44,1.04-2.42,2.25-2.42.59,0,1.18.23,1.65.76l2.88,3.25c.12.13.26.19.41.19.3,0,.59-.24.56-.6l-.04-.48c-.02-.24.12-.46.34-.56l23.08-9.87c.07-.03.15-.04.22-.04m0-3.87c-.6,0-1.19.12-1.74.36l-22.36,9.56-.44-.5c-1.16-1.31-2.82-2.06-4.55-2.06s-3.37.72-4.53,1.99c-1.16,1.26-1.71,2.9-1.57,4.63l.15,1.74c-.4-.12-.83-.18-1.26-.18-.6,0-1.19.12-1.74.36l-11.15,4.77c-2.24.96-3.29,3.56-2.33,5.81l7.11,16.63c-.16-.03-.32-.05-.48-.07l-14.96-1.31h-.17s-.22-.02-.22-.02c-2.31,0-4.2,1.74-4.41,4.04L.02,132.97c-.1,1.18.26,2.32,1.02,3.23.76.91,1.83,1.46,3,1.56l22.48,1.96,1.76.16c.77,2.76,3.28,4.67,6.17,4.67,2.59,0,4.84-1.48,5.87-3.86l.33-.75c.72.71,1.67,1.17,2.73,1.26l12.07,1.06h.17s.22.02.22.02c2.31,0,4.21-1.74,4.41-4.04l.96-10.93,7.72,4.69-1.29,5.57c-.31,1.32,0,2.69.84,3.75.85,1.07,2.11,1.68,3.47,1.68,1.04,0,2.05-.37,2.85-1.05l5.18-4.39c.33.95.98,1.78,1.88,2.33l10.36,6.31c.69.42,1.49.65,2.3.65,1.53,0,2.98-.81,3.78-2.12l34.17-56.08,1.82-2.98c.62-1.01.8-2.2.52-3.35-.28-1.15-.99-2.12-2-2.74l-20.1-12.24.37-1.62c.42-1.81,0-3.67-1.14-5.11-1.15-1.44-2.93-2.3-4.76-2.3-1.41,0-2.8.51-3.89,1.44l-1.3,1.1c-.14-.11-.28-.21-.43-.3l-12.83-7.81c-.17-.1-.34-.19-.52-.27l-13.45-31.44c-.7-1.63-2.29-2.68-4.07-2.68h0Z"/><path class="cls-8" d="m86.21,36.53c-1.76,0-3.67-.17-5.66-.49l-.57-.09-.3-.5c-4.49-7.43-5.41-14.01-2.75-19.56,5.53-11.55,24.49-14.23,25.3-14.34l1.11-.15.28,1.09c.19.74,4.48,18.17-3.06,27.86-3.2,4.11-8.02,6.19-14.33,6.19h0Z"/><path class="cls-7" d="m102.39,2.79s8.22,32.48-16.18,32.48c-1.66,0-3.48-.15-5.46-.47C64.5,7.9,102.39,2.79,102.39,2.79m1.89-2.79l-2.23.3c-.83.11-20.44,2.89-26.27,15.04-2.86,5.96-1.91,12.95,2.81,20.76l.6,1,1.15.19c2.06.34,4.04.51,5.87.51,6.72,0,11.88-2.25,15.33-6.68,7.92-10.17,3.48-28.18,3.29-28.94l-.55-2.18h0Z"/><line class="cls-2" x1="80.92" y1="34.54" x2="95.92" y2="12.36"/><line class="cls-2" x1="84.69" y1="28.97" x2="94.8" y2="27.02"/><line class="cls-2" x1="88.04" y1="24.01" x2="86.35" y2="15.25"/><polygon class="cls-7" points="129.46 83.73 128.11 85.94 95.76 139.04 94.42 141.24 92.22 139.89 87 136.72 85.41 135.75 85.83 133.94 88.15 123.89 79.59 131.14 73.67 136.16 75.41 128.59 76.53 123.74 73.42 126.37 72 127.57 70.41 126.61 56.84 118.35 55.44 134.36 55.21 136.93 52.65 136.7 46.56 136.17 44.71 136.01 44.28 134.2 41.89 124.17 37.45 134.45 34.36 141.58 32.57 134.03 31.42 129.19 29.8 132.93 29.06 134.64 27.21 134.47 8.21 132.82 5.63 132.59 5.86 130.02 11.28 68.08 11.51 65.5 14.07 65.73 23.04 66.52 24.89 66.68 25.32 68.49 26.75 74.48 29.87 67.24 32.33 61.54 25.67 45.97 24.66 43.6 27.03 42.58 32.65 40.18 34.36 39.45 35.59 40.84 42.43 48.56 41.49 37.39 40.85 29.64 46 35.46 49.3 39.19 48.95 35.12 48.8 33.27 50.51 32.54 68.05 25.04 70.42 24.03 71.44 26.39 85.74 59.83 86.95 57.84 89.15 59.18 96.84 63.86 98.43 64.83 98.01 66.64 96.63 72.64 102.64 67.54 108.56 62.53 106.82 70.09 105.87 74.2 107.77 72.59 109.19 71.39 110.79 72.36 127.25 82.39 129.46 83.73"/><polygon class="cls-6" points="47.38 133.9 43.2 116.31 35.67 133.73 32.73 121.33 28.02 132.2 9.02 130.54 14.44 68.6 23.4 69.38 26.63 82.93 27.15 81.71 32.83 68.56 35.61 80.22 39.67 70.81 58.89 72.49 53.46 134.43 47.38 133.9"/><path class="cls-7" d="m15.78,70.19l6.44.56,2,8.42,2,8.42,2.29-5.3h0s3.93-9.09,3.93-9.09l.29,1.23,2.48,10.43,4.25-9.84,1.15-2.66,16.68,1.46-5.16,59.01-3.56-.31-2.48-10.43-2.48-10.43-3.77,8.73-.48,1.11-3.27,7.57-.47-1.96-2.48-10.43-4.26,9.85-1.79,4.12-16.48-1.44,5.16-59.01m17.46-6.28l-3.51,8.13-2.69,6.23-1.95-8.19-.49-2.07-2.12-.19-6.44-.56-2.94-.26-.26,2.94-5.16,59.01-.26,2.94,2.94.26,16.48,1.44,2.12.19.84-1.95,1.79-4.12.74-1.7.43,1.8.47,1.96,2.05,8.63,3.52-8.14,3.27-7.57.48-1.1.26-.59.43,1.8,2.48,10.43.49,2.07,2.12.19,3.56.31,2.94.26.26-2.94,5.16-59.01.26-2.94-2.94-.26-16.68-1.46-2.12-.19-.84,1.95-1.15,2.66-.73,1.7-.43-1.8-.29-1.23-2.06-8.62h0Z"/><polygon class="cls-4" points="52.64 82.28 52.41 74.94 50.91 82.12 49.41 89.31 49.41 89.31 49.64 96.66 49.87 104 51.37 96.81 52.87 89.62 52.87 89.62 52.64 82.28"/><polygon class="cls-5" points="20.14 90.09 19.82 79.85 17.72 89.88 15.63 99.91 15.63 99.91 15.94 110.15 16.26 120.4 18.36 110.36 20.45 100.33 20.46 100.33 20.14 90.09"/><polygon class="cls-3" points="42 96.1 41.52 91.01 40.16 95.94 38.8 100.87 38.8 100.87 39.28 105.96 39.76 111.05 41.12 106.12 42.48 101.19 42.48 101.19 42 96.1"/><line class="cls-1" x1="24.85" y1="112.12" x2="23.5" y2="127.48"/><line class="cls-1" x1="30.71" y1="92.78" x2="30.02" y2="100.75"/><line class="cls-1" x1="41.29" y1="72.44" x2="40.06" y2="86.47"/><line class="cls-1" x1="47.31" y1="133.26" x2="49" y2="113.88"/><line class="cls-1" x1="20.76" y1="69.03" x2="20.19" y2="75.51"/><line class="cls-1" x1="15.38" y1="130.46" x2="15.71" y2="126.8"/><line class="cls-1" x1="32.43" y1="73.21" x2="31.16" y2="87.72"/><polygon class="cls-6" points="88.93 134.81 92.99 117.2 78.52 129.47 81.38 117.05 72.34 124.7 56.05 114.78 88.4 61.68 96.09 66.36 92.96 79.93 93.97 79.07 104.9 69.81 103.63 75.35 102.21 81.48 110.03 74.86 126.5 84.89 94.15 137.99 88.93 134.81"/><path class="cls-7" d="m88.89,63.7l5.52,3.36-1.94,8.43-1.94,8.43,4.4-3.73h0s7.55-6.41,7.55-6.41l-.28,1.23-2.41,10.45,8.18-6.93,2.21-1.88,14.3,8.71-30.82,50.58-3.05-1.86,2.41-10.45,2.41-10.45-7.26,6.15-.92.78-6.3,5.33.45-1.97,2.41-10.45-8.18,6.93-3.43,2.9-14.12-8.61,30.82-50.58m-.98-4.05l-1.53,2.52-30.82,50.58-1.53,2.52,2.52,1.53,14.12,8.61,1.81,1.11,1.62-1.37,3.43-2.9,1.41-1.2-.42,1.8-.45,1.97-1.99,8.65,6.77-5.74,6.3-5.33.92-.77.49-.42-.41,1.8-2.41,10.45-.48,2.07,1.82,1.11,3.05,1.86,2.52,1.53,1.53-2.52,30.82-50.58,1.53-2.52-2.52-1.53-14.3-8.71-1.82-1.11-1.62,1.38-2.21,1.88-1.41,1.2.42-1.8.28-1.24,1.98-8.63-6.76,5.73-5.18,4.39,1.89-8.21.48-2.07-1.82-1.11-5.52-3.36-2.52-1.53h0Z"/><polygon class="cls-4" points="116.56 90.89 119.61 84.21 115.08 89.99 110.54 95.76 110.54 95.76 107.49 102.44 104.43 109.12 108.97 103.35 113.51 97.57 113.51 97.57 116.56 90.89"/><polygon class="cls-5" points="83.97 83.46 88.22 74.14 81.9 82.2 75.57 90.26 75.56 90.26 71.3 99.58 67.05 108.9 73.37 100.84 79.7 92.78 79.71 92.79 83.97 83.46"/><polygon class="cls-3" points="97.09 98.5 98.92 93.73 95.51 97.54 92.11 101.36 92.11 101.36 90.28 106.13 88.45 110.91 91.86 107.09 95.26 103.28 95.26 103.28 97.09 98.5"/><line class="cls-1" x1="78.41" y1="105.29" x2="70.39" y2="118.46"/><line class="cls-1" x1="110.75" y1="77.03" x2="103.43" y2="89.06"/><line class="cls-1" x1="89.15" y1="134.21" x2="99.27" y2="117.59"/><line class="cls-1" x1="93.87" y1="64.87" x2="90.49" y2="70.42"/><line class="cls-1" x1="61.79" y1="117.53" x2="63.7" y2="114.39"/><line class="cls-1" x1="102.47" y1="73.79" x2="94.89" y2="86.23"/><polygon class="cls-6" points="28.64 45.25 34.25 42.85 46.23 56.38 44.65 37.47 53.1 47.01 52.12 35.21 69.66 27.71 94.11 84.88 85.83 88.41 76.6 77.99 76.71 79.31 77.91 93.59 74.13 89.33 69.96 84.62 70.82 94.84 53.09 102.42 28.64 45.25"/><path class="cls-7" d="m68.88,29.64l23.29,54.46-5.94,2.54-5.74-6.48-5.74-6.48.48,5.75h0s.83,9.86.83,9.86l-.84-.95-7.11-8.03.89,10.68.24,2.89-15.4,6.58-23.29-54.46,3.28-1.4,7.11,8.03,7.11,8.03-.79-9.48-.1-1.2-.69-8.22,1.34,1.51,7.11,8.03-.89-10.69-.37-4.48,15.21-6.5m1.55-3.87l-2.71,1.16-15.21,6.5-1.95.84.18,2.12.37,4.48.15,1.85-1.23-1.39-1.34-1.51-5.88-6.64.74,8.84.69,8.22.1,1.2.05.65-1.23-1.38-7.11-8.03-1.41-1.59-1.96.84-3.28,1.4-2.71,1.16,1.16,2.71,23.29,54.46,1.16,2.71,2.71-1.16,15.4-6.58,1.96-.84-.18-2.12-.24-2.89-.15-1.84,1.23,1.39.84.95,5.88,6.62-.74-8.83-.57-6.76,5.58,6.3,1.41,1.59,1.95-.84,5.94-2.54,2.71-1.16-1.16-2.71-23.29-54.46-1.16-2.71h0Z"/><polygon class="cls-4" points="54.99 85.97 58.65 92.33 56.58 85.29 54.51 78.24 54.52 78.24 50.85 71.87 47.18 65.51 49.25 72.56 51.32 79.6 51.32 79.61 54.99 85.97"/><polygon class="cls-5" points="78.94 68.62 84.06 77.5 81.17 67.66 78.28 57.83 78.29 57.83 73.17 48.95 68.06 40.07 70.94 49.9 73.83 59.74 73.83 59.74 78.94 68.62"/><polygon class="cls-3" points="62.5 70.05 65.33 74.31 64.2 69.32 63.07 64.34 63.07 64.34 60.24 60.08 57.42 55.82 58.54 60.8 59.67 65.79 59.67 65.79 62.5 70.05"/><line class="cls-1" x1="69.74" y1="60.95" x2="63.68" y2="46.77"/><line class="cls-1" x1="68.62" y1="94.16" x2="63.09" y2="81.21"/><line class="cls-1" x1="34.62" y1="43.38" x2="42.27" y2="61.26"/><line class="cls-1" x1="88.33" y1="87.48" x2="85.77" y2="81.5"/><line class="cls-1" x1="64.08" y1="30.78" x2="65.53" y2="34.16"/><line class="cls-1" x1="76.07" y1="89.3" x2="70.35" y2="75.91"/></g></svg>