<?xml version="1.0" encoding="UTF-8"?><svg id="Layer_2" xmlns="http://www.w3.org/2000/svg" viewBox="0 0 153.18 206.29"><defs><style>.cls-1,.cls-2,.cls-3,.cls-4,.cls-5{stroke-width:0px;}.cls-6{fill:none;stroke:#000;stroke-linecap:round;stroke-miterlimit:10;stroke-width:2.52px;}.cls-2{fill:#46bc81;}.cls-3{fill:#8a5e3c;}.cls-4{fill:#e1c3a5;}.cls-5{fill:#c09172;}</style></defs><g id="Layer_1-2"><polygon class="cls-2" points="78.11 106.72 101.65 125.12 87.15 175.12 78.11 206.29 69.07 175.12 51.52 114.63 78.11 106.72"/><path class="cls-2" d="m33.01,141.16c-.58,0-1.15-.01-1.73-.05-15.72-.89-28.06-13.96-28.06-29.74s13.36-29.79,29.79-29.79h1.49c-4.3-5.25-6.72-11.88-6.72-18.83,0-16.42,13.36-29.79,29.79-29.79h38.54c16.42,0,29.79,13.36,29.79,29.79,0,6.96-2.42,13.58-6.72,18.83h.99c16.42,0,29.79,13.36,29.79,29.79s-13.36,29.79-29.79,29.79H33.01Z"/><path class="cls-2" d="m96.11,36.19c14.65,0,26.56,11.91,26.56,26.56,0,9.17-4.68,17.29-11.78,22.06h9.27c14.65,0,26.56,11.91,26.56,26.56s-11.91,26.56-26.56,26.56H33.01c-.51,0-1.02-.01-1.53-.05-13.94-.79-25.04-12.39-25.04-26.52s11.91-26.56,26.56-26.56h9.77c-7.1-4.77-11.78-12.88-11.78-22.06,0-14.65,11.91-26.56,26.56-26.56h38.54m0-6.45h-38.54c-18.2,0-33.01,14.81-33.01,33.01,0,5.65,1.44,11.1,4.08,15.9C12.5,80.8,0,94.66,0,111.38s13.67,31.96,31.12,32.96c.57.04,1.21.06,1.89.06h87.16c18.2,0,33.01-14.81,33.01-33.01,0-16.56-12.26-30.31-28.17-32.66,2.67-4.81,4.12-10.29,4.12-15.96,0-18.2-14.81-33.01-33.01-33.01h0Z"/><path class="cls-3" d="m57.4,46.57c-8.94,0-16.19,7.25-16.19,16.19s7.25,16.19,16.19,16.19,16.19-7.25,16.19-16.19-7.25-16.19-16.19-16.19Zm0,28.23c-6.64,0-12.04-5.4-12.04-12.04s5.4-12.04,12.04-12.04,12.04,5.4,12.04,12.04-5.4,12.04-12.04,12.04Zm0-28.23c-8.94,0-16.19,7.25-16.19,16.19s7.25,16.19,16.19,16.19,16.19-7.25,16.19-16.19-7.25-16.19-16.19-16.19Zm0,28.23c-6.64,0-12.04-5.4-12.04-12.04s5.4-12.04,12.04-12.04,12.04,5.4,12.04,12.04-5.4,12.04-12.04,12.04Zm-24.39,20.39c-8.94,0-16.19,7.25-16.19,16.19s7.25,16.19,16.19,16.19,16.19-7.25,16.19-16.19-7.25-16.19-16.19-16.19Zm0,28.23c-6.64,0-12.04-5.4-12.04-12.04s5.4-12.04,12.04-12.04,12.04,5.4,12.04,12.04-5.4,12.04-12.04,12.04Zm24.39-76.85c-8.94,0-16.19,7.25-16.19,16.19s7.25,16.19,16.19,16.19,16.19-7.25,16.19-16.19-7.25-16.19-16.19-16.19Zm0,28.23c-6.64,0-12.04-5.4-12.04-12.04s5.4-12.04,12.04-12.04,12.04,5.4,12.04,12.04-5.4,12.04-12.04,12.04Zm-24.39,20.39c-8.94,0-16.19,7.25-16.19,16.19s7.25,16.19,16.19,16.19,16.19-7.25,16.19-16.19-7.25-16.19-16.19-16.19Zm0,28.23c-6.64,0-12.04-5.4-12.04-12.04s5.4-12.04,12.04-12.04,12.04,5.4,12.04,12.04-5.4,12.04-12.04,12.04Zm24.39-76.85c-8.94,0-16.19,7.25-16.19,16.19s7.25,16.19,16.19,16.19,16.19-7.25,16.19-16.19-7.25-16.19-16.19-16.19Zm0,28.23c-6.64,0-12.04-5.4-12.04-12.04s5.4-12.04,12.04-12.04,12.04,5.4,12.04,12.04-5.4,12.04-12.04,12.04Zm-24.39,20.39c-8.94,0-16.19,7.25-16.19,16.19s7.25,16.19,16.19,16.19,16.19-7.25,16.19-16.19-7.25-16.19-16.19-16.19Zm0,28.23c-6.64,0-12.04-5.4-12.04-12.04s5.4-12.04,12.04-12.04,12.04,5.4,12.04,12.04-5.4,12.04-12.04,12.04Zm24.39-76.85c-8.94,0-16.19,7.25-16.19,16.19s7.25,16.19,16.19,16.19,16.19-7.25,16.19-16.19-7.25-16.19-16.19-16.19Zm0,28.23c-6.64,0-12.04-5.4-12.04-12.04s5.4-12.04,12.04-12.04,12.04,5.4,12.04,12.04-5.4,12.04-12.04,12.04Zm24.22,20.39c-8.94,0-16.19,7.25-16.19,16.19s7.25,16.19,16.19,16.19,16.19-7.25,16.19-16.19-7.25-16.19-16.19-16.19Zm0,28.23c-6.64,0-12.04-5.4-12.04-12.04s5.4-12.04,12.04-12.04,12.04,5.4,12.04,12.04-5.4,12.04-12.04,12.04Zm0-28.23c-8.94,0-16.19,7.25-16.19,16.19s7.25,16.19,16.19,16.19,16.19-7.25,16.19-16.19-7.25-16.19-16.19-16.19Zm0,28.23c-6.64,0-12.04-5.4-12.04-12.04s5.4-12.04,12.04-12.04,12.04,5.4,12.04,12.04-5.4,12.04-12.04,12.04Zm-48.61-28.23c-8.94,0-16.19,7.25-16.19,16.19s7.25,16.19,16.19,16.19,16.19-7.25,16.19-16.19-7.25-16.19-16.19-16.19Zm0,28.23c-6.64,0-12.04-5.4-12.04-12.04s5.4-12.04,12.04-12.04,12.04,5.4,12.04,12.04-5.4,12.04-12.04,12.04Zm24.39-76.85c-8.94,0-16.19,7.25-16.19,16.19s7.25,16.19,16.19,16.19,16.19-7.25,16.19-16.19-7.25-16.19-16.19-16.19Zm0,28.23c-6.64,0-12.04-5.4-12.04-12.04s5.4-12.04,12.04-12.04,12.04,5.4,12.04,12.04-5.4,12.04-12.04,12.04Zm-24.39,20.39c-8.94,0-16.19,7.25-16.19,16.19s7.25,16.19,16.19,16.19,16.19-7.25,16.19-16.19-7.25-16.19-16.19-16.19Zm0,28.23c-6.64,0-12.04-5.4-12.04-12.04s5.4-12.04,12.04-12.04,12.04,5.4,12.04,12.04-5.4,12.04-12.04,12.04Zm24.39-76.85c-8.94,0-16.19,7.25-16.19,16.19s7.25,16.19,16.19,16.19,16.19-7.25,16.19-16.19-7.25-16.19-16.19-16.19Zm0,28.23c-6.64,0-12.04-5.4-12.04-12.04s5.4-12.04,12.04-12.04,12.04,5.4,12.04,12.04-5.4,12.04-12.04,12.04Zm24.22,20.39c-8.94,0-16.19,7.25-16.19,16.19s7.25,16.19,16.19,16.19,16.19-7.25,16.19-16.19-7.25-16.19-16.19-16.19Zm0,28.23c-6.64,0-12.04-5.4-12.04-12.04s5.4-12.04,12.04-12.04,12.04,5.4,12.04,12.04-5.4,12.04-12.04,12.04Zm0-28.23c-8.94,0-16.19,7.25-16.19,16.19s7.25,16.19,16.19,16.19,16.19-7.25,16.19-16.19-7.25-16.19-16.19-16.19Zm0,28.23c-6.64,0-12.04-5.4-12.04-12.04s5.4-12.04,12.04-12.04,12.04,5.4,12.04,12.04-5.4,12.04-12.04,12.04Zm-48.61-28.23c-8.94,0-16.19,7.25-16.19,16.19s7.25,16.19,16.19,16.19,16.19-7.25,16.19-16.19-7.25-16.19-16.19-16.19Zm0,28.23c-6.64,0-12.04-5.4-12.04-12.04s5.4-12.04,12.04-12.04,12.04,5.4,12.04,12.04-5.4,12.04-12.04,12.04Zm24.39-76.85c-8.94,0-16.19,7.25-16.19,16.19s7.25,16.19,16.19,16.19,16.19-7.25,16.19-16.19-7.25-16.19-16.19-16.19Zm0,28.23c-6.64,0-12.04-5.4-12.04-12.04s5.4-12.04,12.04-12.04,12.04,5.4,12.04,12.04-5.4,12.04-12.04,12.04Zm62.77,10.01h-9.27c7.1-4.77,11.78-12.88,11.78-22.06,0-14.65-11.91-26.56-26.56-26.56h-38.54c-14.65,0-26.56,11.91-26.56,26.56,0,9.18,4.68,17.29,11.78,22.06h-9.77c-14.65,0-26.56,11.91-26.56,26.56s11.1,25.73,25.04,26.52c.51.03,1.02.05,1.53.05h87.16c14.65,0,26.56-11.92,26.56-26.56s-11.91-26.56-26.56-26.56Zm-24.06-44.11c12.16,0,22.05,9.89,22.05,22.05,0,2.01-.28,3.97-.78,5.82h-23.26c-1.15,0-2.08.93-2.08,2.08s.93,2.07,2.08,2.07h21.64c-3.64,7.16-11.08,12.09-19.65,12.09h-23.75c7.1-4.77,11.77-12.88,11.77-22.05,0-3.22-.59-6.31-1.64-9.17h16.23c1.15,0,2.07-.93,2.07-2.07s-.92-2.08-2.07-2.08h-18.18c-2.04-3.49-4.83-6.48-8.18-8.73h23.75Zm-60.59,22.05c0-12.16,9.89-22.05,22.05-22.05s22.05,9.89,22.05,22.05-9.89,22.05-22.05,22.05-22.05-9.9-22.05-22.05Zm23.02,33.57h1.23c-.93,1.34-1.75,2.77-2.42,4.28,0,.02-.01.04-.03.05,0-.01-.01-.03-.02-.05-2.04-4.59-5.36-8.5-9.49-11.28h19.03c-1.26.84-2.43,1.81-3.53,2.86h-4.76c-1.14,0-2.07.93-2.07,2.07s.93,2.08,2.07,2.08Zm-47.58,15.05c0-12.16,9.89-22.05,22.05-22.05s21.46,9.31,22.02,20.97c.02.35.03.72.03,1.08s0,.7-.03,1.06c-.55,11.66-10.22,20.99-22.02,20.99s-22.05-9.9-22.05-22.05Zm36.84,22.05c1.35-.9,2.6-1.95,3.76-3.08h4.55c1.14,0,2.07-.92,2.07-2.07s-.93-2.07-2.07-2.07h-1.09c.87-1.28,1.64-2.64,2.28-4.07,0-.02.01-.04.02-.05.01.01.02.03.03.05,2.04,4.6,5.36,8.51,9.49,11.29h-19.03Zm11.8-20.99c-.02-.35-.03-.7-.03-1.06s0-.71.03-1.06c.55-11.67,10.22-20.99,22.02-20.99s22.05,9.89,22.05,22.05-9.89,22.05-22.05,22.05-21.47-9.33-22.02-20.99Zm67.83,9.79h11.91c-3.79,6.68-10.96,11.2-19.17,11.2h-23.75c.54-.37,1.07-.75,1.59-1.16h0c6.2-4.87,10.18-12.42,10.18-20.89,0-3.16-.56-6.19-1.58-9h23.66c1.15,0,2.08-.93,2.08-2.07s-.93-2.08-2.08-2.08h-25.58c-1.71-2.99-3.98-5.62-6.68-7.74h0c-.52-.41-1.04-.79-1.59-1.16h23.75c12.16,0,22.05,9.89,22.05,22.05,0,2.33-.37,4.59-1.04,6.71h-13.74c-1.14,0-2.07.93-2.07,2.08s.93,2.07,2.07,2.07Zm-6.87-4.15h-4.05c-1.14,0-2.07.93-2.07,2.08s.93,2.07,2.07,2.07h4.05c1.15,0,2.08-.93,2.08-2.07s-.93-2.08-2.08-2.08Zm-38.94-22.89c-8.94,0-16.19,7.25-16.19,16.19s7.25,16.19,16.19,16.19,16.19-7.25,16.19-16.19-7.25-16.19-16.19-16.19Zm0,28.23c-6.64,0-12.04-5.4-12.04-12.04s5.4-12.04,12.04-12.04,12.04,5.4,12.04,12.04-5.4,12.04-12.04,12.04Zm-8.03-60.66c0-8.94-7.25-16.19-16.19-16.19s-16.19,7.25-16.19,16.19,7.25,16.19,16.19,16.19,16.19-7.25,16.19-16.19Zm-16.19,12.04c-6.64,0-12.04-5.4-12.04-12.04s5.4-12.04,12.04-12.04,12.04,5.4,12.04,12.04-5.4,12.04-12.04,12.04Zm-24.39,20.39c-8.94,0-16.19,7.25-16.19,16.19s7.25,16.19,16.19,16.19,16.19-7.25,16.19-16.19-7.25-16.19-16.19-16.19Zm0,28.23c-6.64,0-12.04-5.4-12.04-12.04s5.4-12.04,12.04-12.04,12.04,5.4,12.04,12.04-5.4,12.04-12.04,12.04Zm24.39-76.85c-8.94,0-16.19,7.25-16.19,16.19s7.25,16.19,16.19,16.19,16.19-7.25,16.19-16.19-7.25-16.19-16.19-16.19Zm0,28.23c-6.64,0-12.04-5.4-12.04-12.04s5.4-12.04,12.04-12.04,12.04,5.4,12.04,12.04-5.4,12.04-12.04,12.04Zm-24.39,20.39c-8.94,0-16.19,7.25-16.19,16.19s7.25,16.19,16.19,16.19,16.19-7.25,16.19-16.19-7.25-16.19-16.19-16.19Zm0,28.23c-6.64,0-12.04-5.4-12.04-12.04s5.4-12.04,12.04-12.04,12.04,5.4,12.04,12.04-5.4,12.04-12.04,12.04Zm48.61-28.23c-8.94,0-16.19,7.25-16.19,16.19s7.25,16.19,16.19,16.19,16.19-7.25,16.19-16.19-7.25-16.19-16.19-16.19Zm0,28.23c-6.64,0-12.04-5.4-12.04-12.04s5.4-12.04,12.04-12.04,12.04,5.4,12.04,12.04-5.4,12.04-12.04,12.04Zm0-28.23c-8.94,0-16.19,7.25-16.19,16.19s7.25,16.19,16.19,16.19,16.19-7.25,16.19-16.19-7.25-16.19-16.19-16.19Zm0,28.23c-6.64,0-12.04-5.4-12.04-12.04s5.4-12.04,12.04-12.04,12.04,5.4,12.04,12.04-5.4,12.04-12.04,12.04Zm-24.22-76.85c-8.94,0-16.19,7.25-16.19,16.19s7.25,16.19,16.19,16.19,16.19-7.25,16.19-16.19-7.25-16.19-16.19-16.19Zm0,28.23c-6.64,0-12.04-5.4-12.04-12.04s5.4-12.04,12.04-12.04,12.04,5.4,12.04,12.04-5.4,12.04-12.04,12.04Zm-24.39,20.39c-8.94,0-16.19,7.25-16.19,16.19s7.25,16.19,16.19,16.19,16.19-7.25,16.19-16.19-7.25-16.19-16.19-16.19Zm0,28.23c-6.64,0-12.04-5.4-12.04-12.04s5.4-12.04,12.04-12.04,12.04,5.4,12.04,12.04-5.4,12.04-12.04,12.04Zm24.39-76.85c-8.94,0-16.19,7.25-16.19,16.19s7.25,16.19,16.19,16.19,16.19-7.25,16.19-16.19-7.25-16.19-16.19-16.19Zm0,28.23c-6.64,0-12.04-5.4-12.04-12.04s5.4-12.04,12.04-12.04,12.04,5.4,12.04,12.04-5.4,12.04-12.04,12.04Zm-24.39,20.39c-8.94,0-16.19,7.25-16.19,16.19s7.25,16.19,16.19,16.19,16.19-7.25,16.19-16.19-7.25-16.19-16.19-16.19Zm0,28.23c-6.64,0-12.04-5.4-12.04-12.04s5.4-12.04,12.04-12.04,12.04,5.4,12.04,12.04-5.4,12.04-12.04,12.04Zm48.61-28.23c-8.94,0-16.19,7.25-16.19,16.19s7.25,16.19,16.19,16.19,16.19-7.25,16.19-16.19-7.25-16.19-16.19-16.19Zm0,28.23c-6.64,0-12.04-5.4-12.04-12.04s5.4-12.04,12.04-12.04,12.04,5.4,12.04,12.04-5.4,12.04-12.04,12.04Zm0-28.23c-8.94,0-16.19,7.25-16.19,16.19s7.25,16.19,16.19,16.19,16.19-7.25,16.19-16.19-7.25-16.19-16.19-16.19Zm0,28.23c-6.64,0-12.04-5.4-12.04-12.04s5.4-12.04,12.04-12.04,12.04,5.4,12.04,12.04-5.4,12.04-12.04,12.04Zm-24.22-76.85c-8.94,0-16.19,7.25-16.19,16.19s7.25,16.19,16.19,16.19,16.19-7.25,16.19-16.19-7.25-16.19-16.19-16.19Zm0,28.23c-6.64,0-12.04-5.4-12.04-12.04s5.4-12.04,12.04-12.04,12.04,5.4,12.04,12.04-5.4,12.04-12.04,12.04Zm-24.39,20.39c-8.94,0-16.19,7.25-16.19,16.19s7.25,16.19,16.19,16.19,16.19-7.25,16.19-16.19-7.25-16.19-16.19-16.19Zm0,28.23c-6.64,0-12.04-5.4-12.04-12.04s5.4-12.04,12.04-12.04,12.04,5.4,12.04,12.04-5.4,12.04-12.04,12.04Zm24.39-76.85c-8.94,0-16.19,7.25-16.19,16.19s7.25,16.19,16.19,16.19,16.19-7.25,16.19-16.19-7.25-16.19-16.19-16.19Zm0,28.23c-6.64,0-12.04-5.4-12.04-12.04s5.4-12.04,12.04-12.04,12.04,5.4,12.04,12.04-5.4,12.04-12.04,12.04Zm-24.39,20.39c-8.94,0-16.19,7.25-16.19,16.19s7.25,16.19,16.19,16.19,16.19-7.25,16.19-16.19-7.25-16.19-16.19-16.19Zm0,28.23c-6.64,0-12.04-5.4-12.04-12.04s5.4-12.04,12.04-12.04,12.04,5.4,12.04,12.04-5.4,12.04-12.04,12.04Zm24.39-76.85c-8.94,0-16.19,7.25-16.19,16.19s7.25,16.19,16.19,16.19,16.19-7.25,16.19-16.19-7.25-16.19-16.19-16.19Zm0,28.23c-6.64,0-12.04-5.4-12.04-12.04s5.4-12.04,12.04-12.04,12.04,5.4,12.04,12.04-5.4,12.04-12.04,12.04Zm-24.39,20.39c-8.94,0-16.19,7.25-16.19,16.19s7.25,16.19,16.19,16.19,16.19-7.25,16.19-16.19-7.25-16.19-16.19-16.19Zm0,28.23c-6.64,0-12.04-5.4-12.04-12.04s5.4-12.04,12.04-12.04,12.04,5.4,12.04,12.04-5.4,12.04-12.04,12.04Zm24.39-76.85c-8.94,0-16.19,7.25-16.19,16.19s7.25,16.19,16.19,16.19,16.19-7.25,16.19-16.19-7.25-16.19-16.19-16.19Zm0,28.23c-6.64,0-12.04-5.4-12.04-12.04s5.4-12.04,12.04-12.04,12.04,5.4,12.04,12.04-5.4,12.04-12.04,12.04Zm0-28.23c-8.94,0-16.19,7.25-16.19,16.19s7.25,16.19,16.19,16.19,16.19-7.25,16.19-16.19-7.25-16.19-16.19-16.19Zm0,28.23c-6.64,0-12.04-5.4-12.04-12.04s5.4-12.04,12.04-12.04,12.04,5.4,12.04,12.04-5.4,12.04-12.04,12.04Z"/><path class="cls-1" d="m120.17,84.81h-9.27c7.1-4.77,11.78-12.88,11.78-22.06,0-14.65-11.91-26.56-26.56-26.56h-38.54c-14.65,0-26.56,11.91-26.56,26.56,0,9.18,4.68,17.29,11.78,22.06h-9.77c-14.65,0-26.56,11.91-26.56,26.56s11.1,25.73,25.04,26.52c.51.03,1.02.05,1.53.05h87.16c14.65,0,26.56-11.92,26.56-26.56s-11.91-26.56-26.56-26.56Zm-24.06-44.11c12.16,0,22.05,9.89,22.05,22.05,0,2.01-.28,3.97-.78,5.82h-23.26c-1.15,0-2.08.93-2.08,2.08s.93,2.07,2.08,2.07h21.64c-3.64,7.16-11.08,12.09-19.65,12.09h-23.75c7.1-4.77,11.77-12.88,11.77-22.05,0-3.22-.59-6.31-1.64-9.17h16.23c1.15,0,2.07-.93,2.07-2.07s-.92-2.08-2.07-2.08h-18.18c-2.04-3.49-4.83-6.48-8.18-8.73h23.75Zm-60.59,22.05c0-12.16,9.89-22.05,22.05-22.05s22.05,9.89,22.05,22.05-9.89,22.05-22.05,22.05-22.05-9.9-22.05-22.05Zm23.02,33.57h1.23c-.93,1.34-1.75,2.77-2.42,4.28,0,.02-.01.04-.03.05,0-.01-.01-.03-.02-.05-2.04-4.59-5.36-8.5-9.49-11.28h19.03c-1.26.84-2.43,1.81-3.53,2.86h-4.76c-1.14,0-2.07.93-2.07,2.07s.93,2.08,2.07,2.08Zm-47.58,15.05c0-12.16,9.89-22.05,22.05-22.05s21.46,9.31,22.02,20.97c.02.35.03.72.03,1.08s0,.7-.03,1.06c-.55,11.66-10.22,20.99-22.02,20.99s-22.05-9.9-22.05-22.05Zm36.84,22.05c1.35-.9,2.6-1.95,3.76-3.08h4.55c1.14,0,2.07-.92,2.07-2.07s-.93-2.07-2.07-2.07h-1.09c.87-1.28,1.64-2.64,2.28-4.07,0-.02.01-.04.02-.05.01.01.02.03.03.05,2.04,4.6,5.36,8.51,9.49,11.29h-19.03Zm11.8-20.99c-.02-.35-.03-.7-.03-1.06s0-.71.03-1.06c.55-11.67,10.22-20.99,22.02-20.99s22.05,9.89,22.05,22.05-9.89,22.05-22.05,22.05-21.47-9.33-22.02-20.99Zm67.83,9.79h11.91c-3.79,6.68-10.96,11.2-19.17,11.2h-23.75c.54-.37,1.07-.75,1.59-1.16h0c6.2-4.87,10.18-12.42,10.18-20.89,0-3.16-.56-6.19-1.58-9h23.66c1.15,0,2.08-.93,2.08-2.07s-.93-2.08-2.08-2.08h-25.58c-1.71-2.99-3.98-5.62-6.68-7.74h0c-.52-.41-1.04-.79-1.59-1.16h23.75c12.16,0,22.05,9.89,22.05,22.05,0,2.33-.37,4.59-1.04,6.71h-13.74c-1.14,0-2.07.93-2.07,2.08s.93,2.07,2.07,2.07Z"/><path class="cls-3" d="m127.43,118.08h13.74c.68-2.11,1.04-4.37,1.04-6.71,0-12.16-9.89-22.05-22.05-22.05h-23.75c.54.37,1.07.75,1.59,1.16h0c2.7,2.12,4.96,4.75,6.68,7.74h25.58c1.15,0,2.08.93,2.08,2.08s-.93,2.07-2.08,2.07h-23.66c1.02,2.81,1.58,5.84,1.58,9,0,8.47-3.98,16.02-10.18,20.89h0c-.52.41-1.04.79-1.59,1.16h23.75c8.21,0,15.38-4.52,19.17-11.2h-11.91c-1.14,0-2.07-.93-2.07-2.07s.93-2.08,2.07-2.08Zm-6.87,4.15h-4.05c-1.14,0-2.07-.93-2.07-2.07s.93-2.08,2.07-2.08h4.05c1.15,0,2.08.93,2.08,2.08s-.93,2.07-2.08,2.07Z"/><path class="cls-3" d="m92.05,70.65c0,1.14.93,2.07,2.08,2.07h21.64c-3.64,7.16-11.08,12.09-19.65,12.09h-23.75c7.1-4.77,11.77-12.88,11.77-22.05,0-3.22-.59-6.31-1.64-9.17h16.23c1.15,0,2.07-.93,2.07-2.07s-.92-2.08-2.07-2.08h-18.18c-2.04-3.49-4.83-6.48-8.18-8.73h23.75c12.16,0,22.05,9.89,22.05,22.05,0,2.01-.28,3.97-.78,5.82h-23.26c-1.15,0-2.08.93-2.08,2.08Z"/><path class="cls-3" d="m66.83,133.43h-19.03c1.35-.9,2.6-1.95,3.76-3.08h4.55c1.14,0,2.07-.92,2.07-2.07s-.93-2.07-2.07-2.07h-1.09c.87-1.28,1.64-2.64,2.28-4.07,0-.02.01-.04.02-.05.01.01.02.03.03.05,2.04,4.6,5.36,8.51,9.49,11.29Z"/><path class="cls-3" d="m56.47,94.25c0,1.15.93,2.08,2.07,2.08h1.23c-.93,1.34-1.75,2.77-2.42,4.28,0,.02-.01.04-.03.05,0-.01-.01-.03-.02-.05-2.04-4.59-5.36-8.5-9.49-11.28h19.03c-1.26.84-2.43,1.81-3.53,2.86h-4.76c-1.14,0-2.07.93-2.07,2.07Z"/><path class="cls-5" d="m81.62,89.33c-11.81,0-21.47,9.32-22.02,20.99-.02.35-.03.7-.03,1.06s0,.7.03,1.06c.55,11.66,10.22,20.99,22.02,20.99s22.05-9.9,22.05-22.05-9.89-22.05-22.05-22.05Zm0,38.24c-8.94,0-16.19-7.25-16.19-16.19s7.25-16.19,16.19-16.19,16.19,7.25,16.19,16.19-7.25,16.19-16.19,16.19Z"/><path class="cls-5" d="m55.04,110.3c-.56-11.66-10.23-20.97-22.02-20.97s-22.05,9.89-22.05,22.05,9.89,22.05,22.05,22.05,21.47-9.33,22.02-20.99c.02-.35.03-.7.03-1.06s0-.72-.03-1.08Zm-22.02,17.27c-8.94,0-16.19-7.25-16.19-16.19s7.25-16.19,16.19-16.19,16.19,7.25,16.19,16.19-7.25,16.19-16.19,16.19Z"/><path class="cls-5" d="m57.57,40.71c-12.16,0-22.05,9.89-22.05,22.05s9.89,22.05,22.05,22.05,22.05-9.9,22.05-22.05-9.89-22.05-22.05-22.05Zm-.17,38.24c-8.94,0-16.19-7.25-16.19-16.19s7.25-16.19,16.19-16.19,16.19,7.25,16.19,16.19-7.25,16.19-16.19,16.19Z"/><path class="cls-1" d="m57.4,46.57c-8.94,0-16.19,7.25-16.19,16.19s7.25,16.19,16.19,16.19,16.19-7.25,16.19-16.19-7.25-16.19-16.19-16.19Zm0,28.23c-6.64,0-12.04-5.4-12.04-12.04s5.4-12.04,12.04-12.04,12.04,5.4,12.04,12.04-5.4,12.04-12.04,12.04Z"/><circle class="cls-4" cx="57.4" cy="62.76" r="12.04"/><path class="cls-1" d="m33.01,95.19c-8.94,0-16.19,7.25-16.19,16.19s7.25,16.19,16.19,16.19,16.19-7.25,16.19-16.19-7.25-16.19-16.19-16.19Zm0,28.23c-6.64,0-12.04-5.4-12.04-12.04s5.4-12.04,12.04-12.04,12.04,5.4,12.04,12.04-5.4,12.04-12.04,12.04Z"/><circle class="cls-4" cx="33.01" cy="111.38" r="12.04" transform="translate(-40.11 21.11) rotate(-22.5)"/><path class="cls-1" d="m81.62,95.19c-8.94,0-16.19,7.25-16.19,16.19s7.25,16.19,16.19,16.19,16.19-7.25,16.19-16.19-7.25-16.19-16.19-16.19Zm0,28.23c-6.64,0-12.04-5.4-12.04-12.04s5.4-12.04,12.04-12.04,12.04,5.4,12.04,12.04-5.4,12.04-12.04,12.04Z"/><circle class="cls-4" cx="81.62" cy="111.38" r="12.04" transform="translate(-36.41 39.71) rotate(-22.5)"/><path class="cls-1" d="m122.64,120.16c0,1.14-.93,2.07-2.08,2.07h-4.05c-1.14,0-2.07-.93-2.07-2.07s.93-2.08,2.07-2.08h4.05c1.15,0,2.08.93,2.08,2.08Z"/><path class="cls-2" d="m117.55,36.53c-1.76,0-3.67-.17-5.66-.49l-.57-.09-.3-.5c-4.49-7.43-5.41-14.01-2.75-19.56,5.53-11.55,24.5-14.23,25.3-14.34l1.11-.15.28,1.09c.19.74,4.48,18.17-3.06,27.86-3.2,4.11-8.02,6.19-14.33,6.19h0Z"/><path class="cls-1" d="m133.72,2.79s8.22,32.48-16.18,32.48c-1.66,0-3.48-.15-5.46-.47C95.84,7.9,133.72,2.79,133.72,2.79m1.89-2.79l-2.23.3c-.83.11-20.44,2.89-26.27,15.04-2.86,5.96-1.91,12.95,2.81,20.76l.6,1,1.15.19c2.06.34,4.04.51,5.87.51,6.72,0,11.88-2.25,15.33-6.68,7.92-10.17,3.48-28.18,3.29-28.94l-.55-2.18h0Z"/><line class="cls-6" x1="112.26" y1="34.54" x2="127.25" y2="12.36"/><line class="cls-6" x1="116.03" y1="28.97" x2="126.13" y2="27.02"/><line class="cls-6" x1="119.38" y1="24.01" x2="117.69" y2="15.25"/></g></svg>