<?xml version="1.0" encoding="UTF-8"?><svg id="Layer_2" xmlns="http://www.w3.org/2000/svg" viewBox="0 0 155.15 187.71"><defs><style>.cls-1{stroke:#00adee;stroke-width:10.96px;}.cls-1,.cls-2{stroke-miterlimit:10;}.cls-1,.cls-3{fill:#00adee;}.cls-2{fill:none;stroke:#000;stroke-width:2.95px;}.cls-4{fill:#a87c50;}.cls-4,.cls-5,.cls-6,.cls-7{fill-rule:evenodd;}.cls-4,.cls-5,.cls-6,.cls-7,.cls-8,.cls-9,.cls-10,.cls-11,.cls-3{stroke-width:0px;}.cls-5,.cls-9{fill:#8a5e3c;}.cls-6{fill:#e9c09a;}.cls-7{fill:#c3996c;}.cls-10{fill:#e1c3a5;}.cls-11{fill:#c09172;}</style></defs><g id="Layer_1-2"><polygon class="cls-3" points="77.73 125.37 106.38 94.94 86.77 156.54 77.73 187.71 68.69 156.54 52.49 100.69 77.73 125.37"/><path class="cls-1" d="m147.63,91.55l-7.98-5.87s-.01-.02,0-.03c.16-.27.32-.54.47-.82,6.91-12.92,2.03-29.04-10.89-35.95l-10.16-5.44s-.02-.02,0-.03l6.72-11.03,1.07-1.75c.26-.42.12-.98-.3-1.23l-1.75-1.07-14.3-8.71-1.8-1.1s-.02,0-.03,0l-1.61,1.36-2.21,1.88-1.41,1.2.42-1.8.28-1.24,1.72-7.49c.08-.37-.35-.63-.63-.39l-5.86,4.97-5.12,4.34s-.04,0-.04-.02l1.88-8.14.31-1.32c.1-.45-.09-.91-.48-1.15l-1.16-.71-5.52-3.36-1.67-1.02c-.47-.28-1.08-.14-1.36.33l-1.02,1.67-13.68,22.46s0,0,0,0c-4.95,2.35-9.21,6.24-11.99,11.43-.46.86-.86,1.73-1.22,2.61,0,.02-.03.02-.04,0l-5.94-13.9-.77-1.8c-.21-.5-.79-.73-1.29-.52l-1.8.77-15.21,6.5-1.94.83s-.02.01-.01.02l.17,2.1.37,4.48.15,1.85-1.23-1.39-1.34-1.51-5.01-5.66c-.28-.32-.8-.09-.77.33l.63,7.53.69,8.22.1,1.2.05.65-1.23-1.38-7.11-8.03-.89-1.01c-.31-.35-.81-.46-1.23-.28l-1.24.53-3.28,1.4-1.86.8c-.47.2-.69.74-.49,1.21l.8,1.86,7.88,18.42s0,.02,0,.03c-4.18,3.03-7.54,7.3-9.41,12.53-4.9,13.68,2.42,28.75,15.99,33.94l35.52,13.59c5.99,2.29,12.3,2.26,17.94.36.37-.12.75-.26,1.11-.4,5.52-2.18,10.3-6.19,13.36-11.59,0-.01.02-.01.03,0,.28.12.55.23.83.34.36.14.74.28,1.11.4,3.27,1.08,6.73,1.51,10.2,1.27,0,0,.01,0,.02,0l16.32,12.01,1.68,1.23c.39.28.93.2,1.21-.18l1.23-1.68,9.8-13.32,1.25-1.7s0-.02,0-.03l-1.22-1.72-2.59-3.67-1.07-1.51,1.76.57,1.92.62,7.52,2.44c.3.1.54-.24.36-.49l-4.56-6.45-4.76-6.74-.69-.98-.37-.53,1.76.57,10.2,3.31,1.35.44c.4.13.84-.01,1.1-.35l.84-1.14,2.12-2.87,1.24-1.68c.28-.38.2-.92-.18-1.2l-1.68-1.24Z"/><polygon class="cls-7" points="71.55 92.49 76.88 85.25 90.13 89.55 89.36 88.47 81.09 76.77 86.5 78.52 92.48 80.46 86.56 72.09 97.99 56.56 148.07 93.42 144.45 98.34 127.26 92.76 138.22 108.25 126.1 104.32 132.94 113.99 121.63 129.35 71.55 92.49"/><path class="cls-8" d="m98.31,58.62l47.7,35.11-2.12,2.87-10.2-3.31-10.2-3.31,5.5,7.77.7.99,4.76,6.74-1.92-.62-10.2-3.31,6.19,8.76,2.59,3.67-9.8,13.32-47.71-35.11,3.83-5.2,8.23,2.67,8.23,2.67-3.33-4.71h0s-5.72-8.07-5.72-8.07l1.2.39,10.2,3.31-6.19-8.75-1.68-2.37,9.93-13.49m-.63-4.12l-1.75,2.37-9.93,13.49-1.26,1.71,1.23,1.74,1.68,2.37,1.07,1.51-1.76-.57-1.21-.39-8.43-2.73,5.12,7.23,3.92,5.54-8.01-2.6-2.02-.66-1.26,1.71-3.83,5.2-1.75,2.37,2.37,1.75,47.71,35.11,2.37,1.75,1.75-2.37,9.8-13.32,1.26-1.71-1.23-1.74-2.59-3.67-1.07-1.51,1.76.57,1.92.62,8.44,2.74-5.12-7.24-4.76-6.74-.69-.98-.37-.53,1.76.57,10.2,3.31,2.02.66,1.26-1.71,2.12-2.87,1.75-2.37-2.37-1.75-47.7-35.11-2.37-1.75h0Z"/><polygon class="cls-5" points="103.11 66.99 96.72 63.36 102.08 68.39 107.44 73.41 107.44 73.41 113.82 77.04 120.21 80.66 114.85 75.64 109.49 70.61 109.5 70.61 103.11 66.99"/><polygon class="cls-6" points="92.87 98.81 83.95 93.76 91.43 100.76 98.91 107.77 98.91 107.77 107.82 112.83 116.73 117.89 109.26 110.88 101.78 103.87 101.78 103.87 92.87 98.81"/><polygon class="cls-4" points="109 87.05 104.4 84.81 107.9 88.54 111.4 92.26 111.4 92.26 116 94.5 120.6 96.74 117.09 93.01 113.59 89.29 113.59 89.28 109 87.05"/><line class="cls-2" x1="114.13" y1="106.25" x2="126.55" y2="115.39"/><line class="cls-2" x1="88.8" y1="71.57" x2="100.14" y2="79.91"/><line class="cls-2" x1="143.87" y1="98.07" x2="128.2" y2="86.54"/><line class="cls-2" x1="75.21" y1="87.32" x2="80.45" y2="91.18"/><line class="cls-2" x1="124.87" y1="123.88" x2="121.91" y2="121.69"/><line class="cls-2" x1="84.85" y1="79.53" x2="96.58" y2="88.17"/><polygon class="cls-7" points="87.85 80.08 91.91 62.47 77.43 74.73 80.29 62.32 71.25 69.97 54.96 60.05 87.31 6.95 95 11.63 91.87 25.2 92.88 24.34 103.81 15.07 101.13 26.75 108.95 20.13 125.41 30.16 93.06 83.26 87.85 80.08"/><path class="cls-8" d="m87.81,8.97l5.52,3.36-1.94,8.43-1.94,8.43,4.4-3.73h0s7.55-6.41,7.55-6.41l-.28,1.23-2.41,10.45,8.18-6.93,2.21-1.88,14.3,8.71-30.82,50.58-3.05-1.86,2.41-10.45,2.41-10.45-7.26,6.15-.92.78-6.3,5.33.45-1.97,2.41-10.45-8.18,6.93-3.43,2.9-14.12-8.61,30.82-50.58m-.98-4.05l-1.53,2.52-30.82,50.58-1.53,2.52,2.52,1.53,14.12,8.61,1.81,1.11,1.62-1.37,3.43-2.9,1.41-1.2-.42,1.8-.45,1.97-1.99,8.65,6.77-5.74,6.3-5.33.92-.77.49-.42-.41,1.8-2.41,10.45-.48,2.07,1.82,1.11,3.05,1.86,2.52,1.53,1.53-2.52,30.82-50.58,1.53-2.52-2.52-1.53-14.3-8.71-1.82-1.11-1.62,1.38-2.21,1.88-1.41,1.2.42-1.8.28-1.24,1.98-8.63-6.76,5.73-5.17,4.39,1.89-8.21.48-2.07-1.82-1.11-5.52-3.36-2.52-1.53h0Z"/><polygon class="cls-5" points="115.47 36.16 118.53 29.48 113.99 35.26 109.46 41.03 109.45 41.03 106.4 47.71 103.35 54.39 107.88 48.62 112.42 42.84 112.42 42.84 115.47 36.16"/><polygon class="cls-6" points="82.88 28.73 87.14 19.41 80.81 27.47 74.48 35.53 74.48 35.53 70.22 44.85 65.96 54.17 72.29 46.11 78.62 38.05 78.62 38.06 82.88 28.73"/><polygon class="cls-4" points="96.01 43.78 97.83 39 94.43 42.81 91.02 46.63 91.02 46.63 89.19 51.4 87.36 56.18 90.77 52.36 94.18 48.55 94.18 48.55 96.01 43.78"/><line class="cls-2" x1="77.32" y1="50.56" x2="69.3" y2="63.73"/><line class="cls-2" x1="109.67" y1="22.31" x2="102.34" y2="34.33"/><line class="cls-2" x1="88.07" y1="79.48" x2="98.19" y2="62.86"/><line class="cls-2" x1="92.79" y1="10.14" x2="89.4" y2="15.69"/><line class="cls-2" x1="60.7" y1="62.81" x2="62.62" y2="59.66"/><line class="cls-2" x1="101.38" y1="19.06" x2="93.81" y2="31.5"/><circle class="cls-9" cx="101.62" cy="91.37" r="16.19" transform="translate(-10.08 12.64) rotate(-6.78)"/><circle class="cls-9" cx="101.62" cy="91.37" r="12.04" transform="translate(-33.04 114.67) rotate(-51.78)"/><circle class="cls-9" cx="101.62" cy="91.37" r="16.19" transform="translate(-10.08 12.64) rotate(-6.78)"/><circle class="cls-9" cx="101.62" cy="91.37" r="12.04" transform="translate(-33.04 114.67) rotate(-51.78)"/><circle class="cls-9" cx="101.62" cy="91.37" r="16.19" transform="translate(-10.08 12.64) rotate(-6.78)"/><circle class="cls-9" cx="101.62" cy="91.37" r="12.04" transform="translate(-33.04 114.67) rotate(-51.78)"/><circle class="cls-9" cx="101.62" cy="91.37" r="16.19" transform="translate(-10.08 12.64) rotate(-6.78)"/><circle class="cls-9" cx="101.62" cy="91.37" r="12.04" transform="translate(-33.04 114.67) rotate(-51.78)"/><circle class="cls-9" cx="101.62" cy="91.37" r="16.19" transform="translate(-10.08 12.64) rotate(-6.78)"/><circle class="cls-9" cx="101.62" cy="91.37" r="12.04" transform="translate(-33.04 114.67) rotate(-51.78)"/><circle class="cls-9" cx="101.62" cy="91.37" r="16.19" transform="translate(-10.08 12.64) rotate(-6.78)"/><circle class="cls-9" cx="101.62" cy="91.37" r="12.04" transform="translate(-33.04 114.67) rotate(-51.78)"/><circle class="cls-9" cx="101.62" cy="91.37" r="16.19" transform="translate(-10.08 12.64) rotate(-6.78)"/><circle class="cls-9" cx="101.62" cy="91.37" r="12.04" transform="translate(-33.04 114.67) rotate(-51.78)"/><circle class="cls-9" cx="101.62" cy="91.37" r="16.19" transform="translate(-10.08 12.64) rotate(-6.78)"/><circle class="cls-9" cx="101.62" cy="91.37" r="12.04" transform="translate(-33.04 114.67) rotate(-51.78)"/><path class="cls-9" d="m69.69,34.44c6.54-3.67,13.99-4.26,20.66-2.25.22.06.43.14.65.21.37.12.75.26,1.11.4,5.55,2.15,10.42,6.17,13.56,11.76l18.85,33.62c7.16,12.78,2.6,29-10.18,36.16-6.75,3.79-14.47,4.29-21.31,2.04-.37-.12-.75-.26-1.11-.4-5.55-2.15-10.42-6.17-13.56-11.76l-18.85-33.62c-7.16-12.78-2.6-29,10.18-36.16Z"/><path class="cls-9" d="m63.45,68.39c-5.95-10.61-2.16-24.07,8.45-30.02,1.75-.98,3.59-1.7,5.45-2.16l11.37,20.28c.56,1,1.83,1.36,2.83.8s1.35-1.82.79-2.82l-10.58-18.87c8.03-.33,15.96,3.75,20.16,11.23l11.62,20.72c-7.63-3.86-16.99-3.97-24.99.52-2.81,1.58-5.22,3.6-7.2,5.92l-7.94-14.15c-.56-1-1.82-1.35-2.82-.79s-1.36,1.82-.8,2.82l8.89,15.86c-2.05,3.48-3.29,7.38-3.62,11.4l-11.62-20.72Z"/><circle class="cls-9" cx="101.53" cy="91.22" r="22.05" transform="translate(-25.13 40.37) rotate(-20.06)"/><circle class="cls-9" cx="101.62" cy="91.37" r="16.19" transform="translate(-31.7 61.37) rotate(-29.28)"/><circle class="cls-9" cx="101.62" cy="91.37" r="12.04" transform="translate(-33.04 114.67) rotate(-51.78)"/><circle class="cls-9" cx="101.62" cy="91.37" r="16.19" transform="translate(-10.08 12.64) rotate(-6.78)"/><circle class="cls-9" cx="101.62" cy="91.37" r="12.04" transform="translate(-33.04 114.67) rotate(-51.78)"/><circle class="cls-9" cx="101.62" cy="91.37" r="16.19" transform="translate(-10.08 12.64) rotate(-6.78)"/><circle class="cls-9" cx="101.62" cy="91.37" r="12.04" transform="translate(-33.04 114.67) rotate(-51.78)"/><circle class="cls-9" cx="101.62" cy="91.37" r="16.19" transform="translate(-10.08 12.64) rotate(-6.78)"/><circle class="cls-9" cx="101.62" cy="91.37" r="12.04" transform="translate(-33.04 114.67) rotate(-51.78)"/><circle class="cls-9" cx="101.62" cy="91.37" r="16.19" transform="translate(-10.08 12.64) rotate(-6.78)"/><circle class="cls-9" cx="101.62" cy="91.37" r="12.04" transform="translate(-33.04 114.67) rotate(-51.78)"/><circle class="cls-9" cx="101.62" cy="91.37" r="16.19" transform="translate(-10.08 12.64) rotate(-6.78)"/><circle class="cls-9" cx="101.62" cy="91.37" r="12.04" transform="translate(-33.04 114.67) rotate(-51.78)"/><circle class="cls-9" cx="101.62" cy="91.37" r="16.19" transform="translate(-10.08 12.64) rotate(-6.78)"/><circle class="cls-9" cx="101.62" cy="91.37" r="12.04" transform="translate(-33.04 114.67) rotate(-51.78)"/><circle class="cls-9" cx="101.62" cy="91.37" r="16.19" transform="translate(-10.08 12.64) rotate(-6.78)"/><circle class="cls-9" cx="101.62" cy="91.37" r="12.04" transform="translate(-33.04 114.67) rotate(-51.78)"/><circle class="cls-9" cx="101.62" cy="91.37" r="16.19" transform="translate(-10.08 12.64) rotate(-6.78)"/><circle class="cls-9" cx="101.62" cy="91.37" r="12.04" transform="translate(-33.04 114.67) rotate(-51.78)"/><path class="cls-8" d="m69.69,34.44c6.54-3.67,13.99-4.26,20.66-2.25.22.06.43.14.65.21.37.12.75.26,1.11.4,5.55,2.15,10.42,6.17,13.56,11.76l18.85,33.62c7.16,12.78,2.6,29-10.18,36.16-6.75,3.79-14.47,4.29-21.31,2.04-.37-.12-.75-.26-1.11-.4-5.55-2.15-10.42-6.17-13.56-11.76l-18.85-33.62c-7.16-12.78-2.6-29,10.18-36.16Z"/><path class="cls-8" d="m63.45,68.39c-5.95-10.61-2.16-24.07,8.45-30.02,1.75-.98,3.59-1.7,5.45-2.16l11.37,20.28c.56,1,1.83,1.36,2.83.8s1.35-1.82.79-2.82l-10.58-18.87c8.03-.33,15.96,3.75,20.16,11.23l11.62,20.72c-7.63-3.86-16.99-3.97-24.99.52-2.81,1.58-5.22,3.6-7.2,5.92l-7.94-14.15c-.56-1-1.82-1.35-2.82-.79s-1.36,1.82-.8,2.82l8.89,15.86c-2.05,3.48-3.29,7.38-3.62,11.4l-11.62-20.72Z"/><circle class="cls-8" cx="101.53" cy="91.22" r="22.05" transform="translate(-25.13 40.37) rotate(-20.06)"/><path class="cls-9" d="m91.55,57.29c1-.56,1.35-1.82.79-2.82l-10.58-18.87c8.03-.33,15.96,3.75,20.16,11.23l11.62,20.72c-7.63-3.86-16.99-3.97-24.99.52-2.81,1.58-5.22,3.6-7.2,5.92l-7.94-14.15c-.56-1-1.82-1.35-2.82-.79s-1.36,1.82-.8,2.82l8.89,15.86c-2.05,3.48-3.29,7.38-3.62,11.4l-11.62-20.72c-5.95-10.61-2.16-24.07,8.45-30.02,1.75-.98,3.59-1.7,5.45-2.16l11.37,20.28c.56,1,1.83,1.36,2.83.8Z"/><path class="cls-11" d="m82.3,102.01c5.95,10.61,19.41,14.4,30.02,8.45,10.6-5.94,14.4-19.41,8.45-30.02-5.95-10.61-19.42-14.39-30.02-8.45-10.61,5.95-14.4,19.41-8.45,30.02Zm33.44-18.56c4.37,7.8,1.6,17.67-6.2,22.04s-17.67,1.6-22.04-6.2-1.6-17.67,6.2-22.04c7.8-4.37,17.67-1.6,22.04,6.2Z"/><path class="cls-8" d="m87.49,99.29c4.37,7.8,14.24,10.58,22.04,6.2s10.58-14.24,6.2-22.04c-4.37-7.8-14.24-10.58-22.04-6.2-7.8,4.37-10.58,14.24-6.2,22.04Zm24.63-13.81c3.25,5.79,1.18,13.15-4.61,16.4-5.79,3.25-13.15,1.18-16.4-4.61-3.25-5.79-1.18-13.15,4.61-16.4,5.79-3.25,13.15-1.18,16.4,4.61Z"/><circle class="cls-10" cx="101.62" cy="91.37" r="12.04" transform="translate(-31.7 61.37) rotate(-29.28)"/><polygon class="cls-7" points="54.6 58.23 59.86 55.12 73.49 66.99 69.48 48.44 79.09 56.81 76.59 45.23 93.01 35.52 124.65 89.05 116.9 93.63 106.4 84.49 106.68 85.78 109.72 99.78 105.42 96.05 100.67 91.92 102.84 101.94 86.25 111.76 54.6 58.23"/><path class="cls-8" d="m92.49,37.54l30.14,50.99-5.56,3.29-6.53-5.68-6.53-5.68,1.22,5.64h0s2.1,9.67,2.1,9.67l-.95-.83-8.09-7.04,2.27,10.48.61,2.83-14.42,8.52-30.14-50.99,3.07-1.82,8.09,7.04,8.09,7.04-2.01-9.3-.25-1.18-1.75-8.06,1.52,1.33,8.09,7.04-2.27-10.48-.95-4.39,14.24-8.42m1.04-4.04l-2.54,1.5-14.24,8.42-1.83,1.08.45,2.08.95,4.39.39,1.81-1.4-1.22-1.52-1.32-6.69-5.83,1.88,8.67,1.75,8.06.25,1.17.14.63-1.39-1.21-8.09-7.04-1.6-1.4-1.83,1.08-3.07,1.82-2.54,1.5,1.5,2.54,30.14,50.99,1.5,2.54,2.54-1.5,14.42-8.52,1.83-1.08-.45-2.08-.61-2.83-.39-1.81,1.4,1.22.96.83,6.69,5.81-1.88-8.66-1.44-6.63,6.35,5.53,1.6,1.4,1.83-1.08,5.56-3.29,2.54-1.5-1.5-2.54-30.14-50.99-1.5-2.54h0Z"/><polygon class="cls-5" points="85.62 100.16 90.08 106 87.12 99.28 84.16 92.56 84.16 92.56 79.7 86.72 75.24 80.88 78.2 87.6 81.17 94.32 81.17 94.32 85.62 100.16"/><polygon class="cls-6" points="107.51 74.89 113.73 83.03 109.6 73.66 105.46 64.28 105.46 64.28 99.24 56.14 93.02 47.99 97.16 57.37 101.29 66.75 101.29 66.75 107.51 74.89"/><polygon class="cls-4" points="88.06 79.4 91.42 83.26 89.65 78.46 87.89 73.66 87.89 73.66 84.54 69.8 81.18 65.94 82.95 70.74 84.71 75.54 84.71 75.54 88.06 79.4"/><line class="cls-2" x1="90.86" y1="59.72" x2="83.01" y2="46.44"/><line class="cls-2" x1="100.58" y1="101.55" x2="93.42" y2="89.43"/><line class="cls-2" x1="60.29" y1="55.6" x2="70.19" y2="72.34"/><line class="cls-2" x1="119.26" y1="92.38" x2="115.95" y2="86.78"/><line class="cls-2" x1="87.88" y1="39.29" x2="89.75" y2="42.46"/><line class="cls-2" x1="107.34" y1="95.77" x2="99.93" y2="83.23"/><circle class="cls-9" cx="82.69" cy="53.84" r="16.19" transform="translate(-15.39 64.63) rotate(-39.34)"/><circle class="cls-9" cx="82.69" cy="53.84" r="12.04" transform="translate(20.96 130.82) rotate(-84.34)"/><circle class="cls-9" cx="82.69" cy="53.84" r="16.19" transform="translate(-15.39 64.63) rotate(-39.34)"/><circle class="cls-9" cx="82.69" cy="53.84" r="12.04" transform="translate(20.96 130.82) rotate(-84.34)"/><circle class="cls-9" cx="82.69" cy="53.84" r="16.19" transform="translate(-15.39 64.63) rotate(-39.34)"/><circle class="cls-9" cx="82.69" cy="53.84" r="12.04" transform="translate(20.96 130.82) rotate(-84.34)"/><circle class="cls-9" cx="82.69" cy="53.84" r="16.19" transform="translate(-15.39 64.63) rotate(-39.34)"/><circle class="cls-9" cx="82.69" cy="53.84" r="12.04" transform="translate(20.96 130.82) rotate(-84.34)"/><circle class="cls-9" cx="82.69" cy="53.84" r="16.19" transform="translate(-15.39 64.63) rotate(-39.34)"/><circle class="cls-9" cx="82.69" cy="53.84" r="12.04" transform="translate(20.96 130.82) rotate(-84.34)"/><circle class="cls-9" cx="82.69" cy="53.84" r="16.19" transform="translate(-15.39 64.63) rotate(-39.34)"/><circle class="cls-9" cx="82.69" cy="53.84" r="12.04" transform="translate(20.96 130.82) rotate(-84.34)"/><circle class="cls-9" cx="82.69" cy="53.84" r="16.19" transform="translate(-15.39 64.63) rotate(-39.34)"/><circle class="cls-9" cx="82.69" cy="53.84" r="12.04" transform="translate(20.96 130.82) rotate(-84.34)"/><circle class="cls-9" cx="82.69" cy="53.84" r="16.19" transform="translate(-15.39 64.63) rotate(-39.34)"/><circle class="cls-9" cx="82.69" cy="53.84" r="12.04" transform="translate(20.96 130.82) rotate(-84.34)"/><path class="cls-9" d="m140.24,84.64c-3.54,6.61-9.5,11.12-16.2,13.02-.22.07-.44.12-.66.18-.38.1-.77.18-1.16.26-5.84,1.18-12.1.41-17.75-2.61l-33.98-18.19c-12.92-6.91-17.8-23.04-10.88-35.95,3.65-6.83,9.89-11.41,16.86-13.19.38-.1.77-.19,1.16-.26,5.84-1.18,12.1-.41,17.75,2.61l33.98,18.19c12.92,6.91,17.8,23.04,10.89,35.95Z"/><path class="cls-9" d="m127.23,52.67c10.72,5.74,14.77,19.13,9.04,29.85-.95,1.77-2.12,3.37-3.43,4.76l-20.5-10.97c-1.01-.54-2.27-.16-2.81.85s-.16,2.26.85,2.8l19.08,10.21c-6.59,4.6-15.47,5.43-23.03,1.38l-20.94-11.21c8.51-.86,16.46-5.8,20.78-13.89,1.52-2.84,2.46-5.84,2.88-8.86l14.31,7.66c1.01.54,2.26.16,2.8-.85s.17-2.27-.85-2.81l-16.03-8.58c-.15-4.04-1.2-7.99-3.09-11.55l20.94,11.21Z"/><circle class="cls-9" cx="82.84" cy="53.92" r="22.05" transform="translate(-10.29 87.02) rotate(-52.63)"/><circle class="cls-9" cx="82.69" cy="53.84" r="16.19" transform="translate(-3.8 101.34) rotate(-61.84)"/><circle class="cls-9" cx="82.69" cy="53.84" r="12.04" transform="translate(20.96 130.82) rotate(-84.34)"/><circle class="cls-9" cx="82.69" cy="53.84" r="16.19" transform="translate(-15.39 64.63) rotate(-39.34)"/><circle class="cls-9" cx="82.69" cy="53.84" r="12.04" transform="translate(20.96 130.82) rotate(-84.34)"/><circle class="cls-9" cx="82.69" cy="53.84" r="16.19" transform="translate(-15.39 64.63) rotate(-39.34)"/><circle class="cls-9" cx="82.69" cy="53.84" r="12.04" transform="translate(20.96 130.82) rotate(-84.34)"/><circle class="cls-9" cx="82.69" cy="53.84" r="16.19" transform="translate(-15.39 64.63) rotate(-39.34)"/><circle class="cls-9" cx="82.69" cy="53.84" r="12.04" transform="translate(20.96 130.82) rotate(-84.34)"/><circle class="cls-9" cx="82.69" cy="53.84" r="16.19" transform="translate(-15.39 64.63) rotate(-39.34)"/><circle class="cls-9" cx="82.69" cy="53.84" r="12.04" transform="translate(20.96 130.82) rotate(-84.34)"/><circle class="cls-9" cx="82.69" cy="53.84" r="16.19" transform="translate(-15.39 64.63) rotate(-39.34)"/><circle class="cls-9" cx="82.69" cy="53.84" r="12.04" transform="translate(20.96 130.82) rotate(-84.34)"/><circle class="cls-9" cx="82.69" cy="53.84" r="16.19" transform="translate(-15.39 64.63) rotate(-39.34)"/><circle class="cls-9" cx="82.69" cy="53.84" r="12.04" transform="translate(20.96 130.82) rotate(-84.34)"/><circle class="cls-9" cx="82.69" cy="53.84" r="16.19" transform="translate(-15.39 64.63) rotate(-39.34)"/><circle class="cls-9" cx="82.69" cy="53.84" r="12.04" transform="translate(20.96 130.82) rotate(-84.34)"/><circle class="cls-9" cx="82.69" cy="53.84" r="16.19" transform="translate(-15.39 64.63) rotate(-39.34)"/><circle class="cls-9" cx="82.69" cy="53.84" r="12.04" transform="translate(20.96 130.82) rotate(-84.34)"/><path class="cls-8" d="m140.24,84.64c-3.54,6.61-9.5,11.12-16.2,13.02-.22.07-.44.12-.66.18-.38.1-.77.18-1.16.26-5.84,1.18-12.1.41-17.75-2.61l-33.98-18.19c-12.92-6.91-17.8-23.04-10.88-35.95,3.65-6.83,9.89-11.41,16.86-13.19.38-.1.77-.19,1.16-.26,5.84-1.18,12.1-.41,17.75,2.61l33.98,18.19c12.92,6.91,17.8,23.04,10.89,35.95Z"/><path class="cls-8" d="m127.23,52.67c10.72,5.74,14.77,19.13,9.04,29.85-.95,1.77-2.12,3.37-3.43,4.76l-20.5-10.97c-1.01-.54-2.27-.16-2.81.85s-.16,2.26.85,2.8l19.08,10.21c-6.59,4.6-15.47,5.43-23.03,1.38l-20.94-11.21c8.51-.86,16.46-5.8,20.78-13.89,1.52-2.84,2.46-5.84,2.88-8.86l14.31,7.66c1.01.54,2.26.16,2.8-.85s.17-2.27-.85-2.81l-16.03-8.58c-.15-4.04-1.2-7.99-3.09-11.55l20.94,11.21Z"/><circle class="cls-8" cx="82.84" cy="53.92" r="22.05" transform="translate(-10.29 87.02) rotate(-52.63)"/><path class="cls-9" d="m109.52,77.15c-.54,1.01-.16,2.26.85,2.8l19.08,10.21c-6.59,4.6-15.47,5.43-23.03,1.38l-20.94-11.21c8.51-.86,16.46-5.8,20.78-13.89,1.52-2.84,2.46-5.84,2.88-8.86l14.31,7.66c1.01.54,2.26.16,2.8-.85s.17-2.27-.85-2.81l-16.03-8.58c-.15-4.04-1.2-7.99-3.09-11.55l20.94,11.21c10.72,5.74,14.77,19.13,9.04,29.85-.95,1.77-2.12,3.37-3.43,4.76l-20.5-10.97c-1.01-.54-2.27-.16-2.81.85Z"/><path class="cls-11" d="m93.25,34.48c-10.72-5.74-24.11-1.69-29.85,9.04-5.74,10.72-1.69,24.11,9.04,29.85,10.72,5.74,24.11,1.68,29.85-9.04,5.74-10.72,1.69-24.11-9.04-29.85Zm-18.19,33.64c-7.88-4.22-10.85-14.03-6.63-21.91,4.22-7.88,14.03-10.85,21.91-6.63,7.88,4.22,10.85,14.03,6.63,21.91s-14.03,10.85-21.91,6.63Z"/><path class="cls-8" d="m90.33,39.56c-7.88-4.22-17.69-1.25-21.91,6.63-4.22,7.88-1.25,17.69,6.63,21.91,7.88,4.22,17.69,1.25,21.91-6.63s1.25-17.69-6.63-21.91Zm-13.32,24.89c-5.85-3.13-8.07-10.45-4.94-16.3,3.13-5.85,10.45-8.07,16.3-4.94,5.85,3.13,8.07,10.45,4.94,16.3-3.13,5.85-10.45,8.07-16.3,4.94Z"/><circle class="cls-10" cx="82.69" cy="53.84" r="12.04" transform="translate(-3.8 101.34) rotate(-61.84)"/><polygon class="cls-7" points="9.45 46.82 15.06 44.42 27.05 57.95 25.47 39.04 33.92 48.58 32.93 36.78 50.47 29.28 74.92 86.45 66.65 89.98 57.41 79.56 57.53 80.88 58.72 95.16 50.77 86.19 51.63 96.41 33.9 103.99 9.45 46.82"/><path class="cls-8" d="m49.69,31.21l23.29,54.46-5.94,2.54-5.74-6.48-5.74-6.48.48,5.75h0s.83,9.86.83,9.86l-.84-.95-7.11-8.03.89,10.68.24,2.89-15.4,6.58L11.38,47.59l3.28-1.4,7.11,8.03,7.11,8.03-.79-9.48-.1-1.2-.69-8.22,1.34,1.51,7.11,8.03-.89-10.69-.37-4.48,15.21-6.5m1.55-3.87l-2.71,1.16-15.21,6.5-1.95.84.18,2.12.37,4.48.15,1.85-1.23-1.39-1.34-1.51-5.88-6.65.74,8.84.69,8.22.1,1.2.05.65-1.23-1.38-7.11-8.03-1.41-1.59-1.96.84-3.28,1.4-2.71,1.16,1.16,2.71,23.29,54.46,1.16,2.71,2.71-1.16,15.4-6.58,1.96-.84-.18-2.12-.24-2.89-.15-1.84,1.23,1.39.84.95,5.88,6.62-.74-8.83-.57-6.76,5.58,6.3,1.41,1.59,1.95-.84,5.94-2.54,2.71-1.16-1.16-2.71-23.29-54.46-1.16-2.71h0Z"/><polygon class="cls-5" points="35.8 87.54 39.47 93.9 37.4 86.86 35.33 79.81 35.33 79.81 31.66 73.44 28 67.08 30.07 74.13 32.14 81.17 32.13 81.18 35.8 87.54"/><polygon class="cls-6" points="59.76 70.19 64.87 79.07 61.98 69.23 59.1 59.4 59.1 59.4 53.98 50.52 48.87 41.64 51.76 51.47 54.64 61.31 54.64 61.31 59.76 70.19"/><polygon class="cls-4" points="43.31 71.62 46.14 75.88 45.01 70.89 43.88 65.91 43.89 65.91 41.06 61.65 38.23 57.39 39.36 62.37 40.49 67.36 40.48 67.36 43.31 71.62"/><line class="cls-2" x1="50.55" y1="62.52" x2="44.49" y2="48.34"/><line class="cls-2" x1="49.44" y1="95.73" x2="43.9" y2="82.78"/><line class="cls-2" x1="15.43" y1="44.95" x2="23.08" y2="62.83"/><line class="cls-2" x1="69.14" y1="89.05" x2="66.59" y2="83.07"/><line class="cls-2" x1="44.89" y1="32.35" x2="46.34" y2="35.73"/><line class="cls-2" x1="56.89" y1="90.87" x2="51.16" y2="77.48"/><circle class="cls-9" cx="68.29" cy="102.52" r="16.19" transform="translate(-52.49 78.32) rotate(-45)"/><circle class="cls-9" cx="68.29" cy="102.52" r="12.04" transform="translate(-2.76 1.89) rotate(-1.56)"/><circle class="cls-9" cx="68.29" cy="102.52" r="16.19" transform="translate(-52.49 78.32) rotate(-45)"/><circle class="cls-9" cx="68.29" cy="102.52" r="12.04" transform="translate(-2.76 1.89) rotate(-1.56)"/><circle class="cls-9" cx="68.29" cy="102.52" r="16.19" transform="translate(-52.49 78.32) rotate(-45)"/><circle class="cls-9" cx="68.29" cy="102.52" r="12.04" transform="translate(-2.76 1.89) rotate(-1.56)"/><circle class="cls-9" cx="68.29" cy="102.52" r="16.19" transform="translate(-52.49 78.32) rotate(-45)"/><circle class="cls-9" cx="68.29" cy="102.52" r="12.04" transform="translate(-2.76 1.89) rotate(-1.56)"/><circle class="cls-9" cx="68.29" cy="102.52" r="16.19" transform="translate(-52.49 78.32) rotate(-45)"/><circle class="cls-9" cx="68.29" cy="102.52" r="12.04" transform="translate(-2.76 1.89) rotate(-1.56)"/><circle class="cls-9" cx="68.29" cy="102.52" r="16.19" transform="translate(-52.49 78.32) rotate(-45)"/><circle class="cls-9" cx="68.29" cy="102.52" r="12.04" transform="translate(-2.76 1.89) rotate(-1.56)"/><circle class="cls-9" cx="68.29" cy="102.52" r="16.19" transform="translate(-52.49 78.32) rotate(-45)"/><circle class="cls-9" cx="68.29" cy="102.52" r="12.04" transform="translate(-2.76 1.89) rotate(-1.56)"/><circle class="cls-9" cx="68.29" cy="102.52" r="16.19" transform="translate(-52.49 78.32) rotate(-45)"/><circle class="cls-9" cx="68.29" cy="102.52" r="12.04" transform="translate(-2.76 1.89) rotate(-1.56)"/><path class="cls-9" d="m7.33,79.19c2.68-7,8.02-12.22,14.44-14.95.21-.09.42-.17.63-.26.37-.14.74-.28,1.11-.4,5.64-1.9,11.96-1.93,17.94.36l36,13.78c13.68,5.24,20.55,20.62,15.31,34.3-2.77,7.23-8.38,12.56-15.07,15.21-.37.14-.74.28-1.11.4-5.64,1.9-11.96,1.93-17.94-.36l-36-13.78c-13.68-5.24-20.55-20.62-15.31-34.3Z"/><path class="cls-9" d="m24.26,109.28c-11.36-4.35-17.06-17.12-12.71-28.47.72-1.88,1.68-3.6,2.81-5.15l21.72,8.31c1.07.41,2.27-.13,2.68-1.2s-.13-2.26-1.2-2.67l-20.21-7.73c5.96-5.39,14.67-7.33,22.67-4.27l22.18,8.49c-8.34,1.92-15.6,7.82-18.88,16.39-1.15,3.01-1.71,6.1-1.74,9.16l-15.16-5.8c-1.07-.41-2.26.13-2.67,1.19s.12,2.27,1.19,2.68l16.98,6.5c.66,3.99,2.19,7.78,4.52,11.08l-22.18-8.49Z"/><circle class="cls-9" cx="68.14" cy="102.46" r="22.05" transform="translate(-54.68 109.9) rotate(-59.84)"/><circle class="cls-9" cx="68.29" cy="102.52" r="16.19" transform="translate(-51.86 129.66) rotate(-69.06)"/><circle class="cls-9" cx="68.29" cy="102.52" r="12.04" transform="translate(-2.76 1.89) rotate(-1.56)"/><circle class="cls-9" cx="68.29" cy="102.52" r="16.19" transform="translate(-52.49 78.32) rotate(-45)"/><circle class="cls-9" cx="68.29" cy="102.52" r="12.04" transform="translate(-2.76 1.89) rotate(-1.56)"/><circle class="cls-9" cx="68.29" cy="102.52" r="16.19" transform="translate(-52.49 78.32) rotate(-45)"/><circle class="cls-9" cx="68.29" cy="102.52" r="12.04" transform="translate(-2.76 1.89) rotate(-1.56)"/><circle class="cls-9" cx="68.29" cy="102.52" r="16.19" transform="translate(-52.49 78.32) rotate(-45)"/><circle class="cls-9" cx="68.29" cy="102.52" r="12.04" transform="translate(-2.76 1.89) rotate(-1.56)"/><circle class="cls-9" cx="68.29" cy="102.52" r="16.19" transform="translate(-52.49 78.32) rotate(-45)"/><circle class="cls-9" cx="68.29" cy="102.52" r="12.04" transform="translate(-2.76 1.89) rotate(-1.56)"/><circle class="cls-9" cx="68.29" cy="102.52" r="16.19" transform="translate(-52.49 78.32) rotate(-45)"/><circle class="cls-9" cx="68.29" cy="102.52" r="12.04" transform="translate(-2.76 1.89) rotate(-1.56)"/><circle class="cls-9" cx="68.29" cy="102.52" r="16.19" transform="translate(-52.49 78.32) rotate(-45)"/><circle class="cls-9" cx="68.29" cy="102.52" r="12.04" transform="translate(-2.76 1.89) rotate(-1.56)"/><circle class="cls-9" cx="68.29" cy="102.52" r="16.19" transform="translate(-52.49 78.32) rotate(-45)"/><circle class="cls-9" cx="68.29" cy="102.52" r="12.04" transform="translate(-2.76 1.89) rotate(-1.56)"/><circle class="cls-9" cx="68.29" cy="102.52" r="16.19" transform="translate(-52.49 78.32) rotate(-45)"/><circle class="cls-9" cx="68.29" cy="102.52" r="12.04" transform="translate(-2.76 1.89) rotate(-1.56)"/><path class="cls-8" d="m7.33,79.19c2.68-7,8.02-12.22,14.44-14.95.21-.09.42-.17.63-.26.37-.14.74-.28,1.11-.4,5.64-1.9,11.96-1.93,17.94.36l36,13.78c13.68,5.24,20.55,20.62,15.31,34.3-2.77,7.23-8.38,12.56-15.07,15.21-.37.14-.74.28-1.11.4-5.64,1.9-11.96,1.93-17.94-.36l-36-13.78c-13.68-5.24-20.55-20.62-15.31-34.3Z"/><path class="cls-8" d="m24.26,109.28c-11.36-4.35-17.06-17.12-12.71-28.47.72-1.88,1.68-3.6,2.81-5.15l21.72,8.31c1.07.41,2.27-.13,2.68-1.2s-.13-2.26-1.2-2.67l-20.21-7.73c5.96-5.39,14.67-7.33,22.67-4.27l22.18,8.49c-8.34,1.92-15.6,7.82-18.88,16.39-1.15,3.01-1.71,6.1-1.74,9.16l-15.16-5.8c-1.07-.41-2.26.13-2.67,1.19s.12,2.27,1.19,2.68l16.98,6.5c.66,3.99,2.19,7.78,4.52,11.08l-22.18-8.49Z"/><circle class="cls-8" cx="68.14" cy="102.46" r="22.05" transform="translate(-54.68 109.9) rotate(-59.84)"/><path class="cls-9" d="m38.75,82.76c.41-1.07-.13-2.26-1.2-2.67l-20.21-7.73c5.96-5.39,14.67-7.33,22.67-4.27l22.18,8.49c-8.34,1.92-15.6,7.82-18.88,16.39-1.15,3.01-1.71,6.1-1.74,9.16l-15.16-5.8c-1.07-.41-2.26.13-2.67,1.19s.12,2.27,1.19,2.68l16.98,6.5c.66,3.99,2.19,7.78,4.52,11.08l-22.18-8.49c-11.36-4.35-17.06-17.12-12.71-28.47.72-1.88,1.68-3.6,2.81-5.15l21.72,8.31c1.07.41,2.27-.13,2.68-1.2Z"/><path class="cls-11" d="m60.26,123.05c11.36,4.35,24.13-1.36,28.47-12.71,4.34-11.35-1.36-24.13-12.71-28.47-11.36-4.35-24.13,1.36-28.47,12.71s1.36,24.13,12.71,28.47Zm13.82-35.65c8.35,3.2,12.53,12.55,9.33,20.91s-12.55,12.53-20.91,9.33c-8.35-3.2-12.53-12.55-9.33-20.91,3.2-8.35,12.55-12.53,20.91-9.33Z"/><path class="cls-8" d="m62.51,117.64c8.35,3.2,17.71-.98,20.91-9.33s-.98-17.71-9.33-20.91c-8.35-3.2-17.71.98-20.91,9.33-3.2,8.35.98,17.71,9.33,20.91Zm10.09-26.37c6.2,2.37,9.32,9.35,6.94,15.55-2.37,6.2-9.35,9.32-15.55,6.94-6.2-2.37-9.32-9.35-6.94-15.55,2.37-6.2,9.35-9.32,15.55-6.94Z"/><circle class="cls-10" cx="68.29" cy="102.52" r="12.04" transform="translate(-51.86 129.66) rotate(-69.06)"/></g></svg>