<?xml version="1.0" encoding="UTF-8"?><svg id="Layer_2" xmlns="http://www.w3.org/2000/svg" viewBox="0 0 155.15 206.29"><defs><style>.cls-1{stroke:#46bc81;stroke-width:10.96px;}.cls-1,.cls-2,.cls-3{stroke-miterlimit:10;}.cls-1,.cls-4{fill:#46bc81;}.cls-2{stroke-width:2.95px;}.cls-2,.cls-3{fill:none;stroke:#000;}.cls-5{fill:#a87c50;}.cls-5,.cls-6,.cls-7,.cls-8{fill-rule:evenodd;}.cls-5,.cls-6,.cls-7,.cls-8,.cls-9,.cls-4,.cls-10,.cls-11,.cls-12{stroke-width:0px;}.cls-6,.cls-10{fill:#8a5e3c;}.cls-7{fill:#e9c09a;}.cls-8{fill:#c3996c;}.cls-3{stroke-linecap:round;stroke-width:2.52px;}.cls-11{fill:#e1c3a5;}.cls-12{fill:#c09172;}</style></defs><g id="Layer_1-2"><polygon class="cls-4" points="77.73 143.95 106.38 113.52 86.77 175.12 77.73 206.29 68.69 175.12 52.49 119.27 77.73 143.95"/><path class="cls-1" d="m147.63,110.13l-7.98-5.87s-.01-.02,0-.03c.16-.27.32-.54.47-.82,6.91-12.92,2.03-29.04-10.89-35.95l-10.16-5.44s-.02-.02,0-.03l6.72-11.03,1.07-1.75c.26-.42.12-.98-.3-1.23l-1.75-1.07-14.3-8.71-1.8-1.1s-.02,0-.03,0l-1.61,1.36-2.21,1.88-1.41,1.2.42-1.8.28-1.24,1.72-7.49c.08-.37-.35-.63-.63-.39l-5.86,4.97-5.12,4.34s-.04,0-.04-.02l1.88-8.14.31-1.32c.1-.45-.09-.91-.48-1.15l-1.16-.71-5.52-3.36-1.67-1.02c-.47-.28-1.08-.14-1.36.33l-1.02,1.67-13.68,22.46s0,0,0,0c-4.95,2.35-9.21,6.24-11.99,11.43-.46.86-.86,1.73-1.22,2.61,0,.02-.03.02-.04,0l-5.94-13.9-.77-1.8c-.21-.5-.79-.73-1.29-.52l-1.8.77-15.21,6.5-1.94.83s-.02.01-.01.02l.17,2.1.37,4.48.15,1.85-1.23-1.39-1.34-1.51-5.01-5.66c-.28-.32-.8-.09-.77.33l.63,7.53.69,8.22.1,1.2.05.65-1.23-1.38-7.11-8.03-.89-1.01c-.31-.35-.81-.46-1.23-.28l-1.24.53-3.28,1.4-1.86.8c-.47.2-.69.74-.49,1.21l.8,1.86,7.88,18.42s0,.02,0,.03c-4.18,3.03-7.54,7.3-9.41,12.53-4.9,13.68,2.42,28.75,15.99,33.94l35.52,13.59c5.99,2.29,12.3,2.26,17.94.36.37-.12.75-.26,1.11-.4,5.52-2.18,10.3-6.19,13.36-11.59,0-.01.02-.01.03,0,.28.12.55.23.83.34.36.14.74.28,1.11.4,3.27,1.08,6.73,1.51,10.2,1.27,0,0,.01,0,.02,0l16.32,12.01,1.68,1.23c.39.28.93.2,1.21-.18l1.23-1.68,9.8-13.32,1.25-1.7s0-.02,0-.03l-1.22-1.72-2.59-3.67-1.07-1.51,1.76.57,1.92.62,7.52,2.44c.3.1.54-.24.36-.49l-4.56-6.45-4.76-6.74-.69-.98-.37-.53,1.76.57,10.2,3.31,1.35.44c.4.13.84-.01,1.1-.35l.84-1.14,2.12-2.87,1.24-1.68c.28-.38.2-.92-.18-1.2l-1.68-1.24Z"/><polygon class="cls-8" points="71.55 111.07 76.88 103.83 90.13 108.13 89.36 107.05 81.09 95.35 92.48 99.04 86.56 90.67 97.99 75.14 148.07 112 144.45 116.92 127.26 111.34 138.22 126.83 126.1 122.9 132.94 132.57 121.63 147.93 71.55 111.07"/><path class="cls-9" d="m98.31,77.2l47.7,35.11-2.12,2.87-10.2-3.31-10.2-3.31,5.5,7.77.7.99,4.76,6.74-1.92-.62-10.2-3.31,6.19,8.76,2.59,3.67-9.8,13.32-47.71-35.11,3.83-5.2,8.23,2.67,8.23,2.67-3.33-4.71h0s-5.72-8.07-5.72-8.07l1.2.39,10.2,3.31-6.19-8.75-1.68-2.37,9.93-13.49m-.63-4.12l-1.75,2.37-9.93,13.49-1.26,1.71,1.23,1.74,1.68,2.37,1.07,1.51-1.76-.57-1.21-.39-8.43-2.73,5.12,7.23,3.92,5.54-8.01-2.6-2.02-.66-1.26,1.71-3.83,5.2-1.75,2.37,2.37,1.75,47.71,35.11,2.37,1.75,1.75-2.37,9.8-13.32,1.26-1.71-1.23-1.74-2.59-3.67-1.07-1.51,1.76.57,1.92.62,8.44,2.74-5.12-7.25-4.76-6.74-.69-.98-.37-.53,1.76.57,10.2,3.31,2.02.66,1.26-1.71,2.12-2.87,1.75-2.37-2.37-1.75-47.7-35.11-2.37-1.75h0Z"/><polygon class="cls-6" points="103.11 85.57 96.72 81.94 102.08 86.97 107.44 91.99 107.44 91.99 113.82 95.62 120.21 99.24 114.85 94.22 109.49 89.19 109.5 89.19 103.11 85.57"/><polygon class="cls-7" points="92.87 117.39 83.95 112.34 91.43 119.34 98.91 126.35 98.91 126.35 107.82 131.41 116.73 136.47 109.26 129.46 101.78 122.45 101.78 122.45 92.87 117.39"/><polygon class="cls-5" points="109 105.63 104.4 103.39 107.9 107.12 111.4 110.84 111.4 110.84 116 113.08 120.6 115.32 117.09 111.59 113.59 107.87 113.59 107.86 109 105.63"/><line class="cls-2" x1="114.13" y1="124.83" x2="126.55" y2="133.97"/><line class="cls-2" x1="88.8" y1="90.15" x2="100.14" y2="98.49"/><line class="cls-2" x1="143.87" y1="116.65" x2="128.2" y2="105.12"/><line class="cls-2" x1="75.21" y1="105.9" x2="80.45" y2="109.76"/><line class="cls-2" x1="124.87" y1="142.46" x2="121.91" y2="140.27"/><line class="cls-2" x1="84.85" y1="98.11" x2="96.58" y2="106.75"/><polygon class="cls-8" points="87.85 98.66 91.91 81.05 77.43 93.31 80.29 80.9 71.25 88.55 54.96 78.63 87.31 25.53 95 30.21 91.87 43.78 92.88 42.92 103.81 33.65 101.13 45.33 108.95 38.71 125.41 48.74 93.06 101.84 87.85 98.66"/><path class="cls-9" d="m87.81,27.55l5.52,3.36-1.94,8.43-1.94,8.43,4.4-3.73h0s7.55-6.41,7.55-6.41l-.28,1.23-2.41,10.45,8.18-6.93,2.21-1.88,14.3,8.71-30.82,50.58-3.05-1.86,2.41-10.45,2.41-10.45-7.26,6.15-.92.78-6.3,5.33.45-1.97,2.41-10.45-8.18,6.93-3.43,2.9-14.12-8.61,30.82-50.58m-.98-4.05l-1.53,2.52-30.82,50.58-1.53,2.52,2.52,1.53,14.12,8.61,1.81,1.11,1.62-1.37,3.43-2.9,1.41-1.2-.42,1.8-.45,1.97-1.99,8.65,6.77-5.74,6.3-5.33.92-.77.49-.42-.41,1.8-2.41,10.45-.48,2.07,1.82,1.11,3.05,1.86,2.52,1.53,1.53-2.52,30.82-50.58,1.53-2.52-2.52-1.53-14.3-8.71-1.82-1.11-1.62,1.38-2.21,1.88-1.41,1.2.42-1.8.28-1.24,1.98-8.63-6.76,5.73-5.17,4.39,1.89-8.21.48-2.07-1.82-1.11-5.52-3.36-2.52-1.53h0Z"/><polygon class="cls-6" points="115.47 54.74 118.53 48.06 113.99 53.84 109.46 59.61 109.45 59.61 106.4 66.29 103.35 72.97 107.88 67.2 112.42 61.42 112.42 61.42 115.47 54.74"/><polygon class="cls-7" points="82.88 47.31 87.14 37.99 80.81 46.05 74.48 54.11 74.48 54.11 70.22 63.43 65.96 72.75 72.29 64.69 78.62 56.63 78.62 56.64 82.88 47.31"/><polygon class="cls-5" points="96.01 62.36 97.83 57.58 94.43 61.39 91.02 65.21 91.02 65.21 89.19 69.98 87.36 74.76 90.77 70.94 94.18 67.13 94.18 67.13 96.01 62.36"/><line class="cls-2" x1="77.32" y1="69.14" x2="69.3" y2="82.31"/><line class="cls-2" x1="109.67" y1="40.89" x2="102.34" y2="52.91"/><line class="cls-2" x1="88.07" y1="98.06" x2="98.19" y2="81.44"/><line class="cls-2" x1="92.79" y1="28.72" x2="89.4" y2="34.27"/><line class="cls-2" x1="60.7" y1="81.39" x2="62.62" y2="78.24"/><line class="cls-2" x1="101.38" y1="37.64" x2="93.81" y2="50.08"/><circle class="cls-10" cx="101.62" cy="109.95" r="16.19" transform="translate(-12.27 12.77) rotate(-6.78)"/><circle class="cls-10" cx="101.62" cy="109.95" r="12.04" transform="translate(-47.63 121.76) rotate(-51.78)"/><circle class="cls-10" cx="101.62" cy="109.95" r="16.19" transform="translate(-12.27 12.77) rotate(-6.78)"/><circle class="cls-10" cx="101.62" cy="109.95" r="12.04" transform="translate(-47.63 121.76) rotate(-51.78)"/><circle class="cls-10" cx="101.62" cy="109.95" r="16.19" transform="translate(-12.27 12.77) rotate(-6.78)"/><circle class="cls-10" cx="101.62" cy="109.95" r="12.04" transform="translate(-47.63 121.76) rotate(-51.78)"/><circle class="cls-10" cx="101.62" cy="109.95" r="16.19" transform="translate(-12.27 12.77) rotate(-6.78)"/><circle class="cls-10" cx="101.62" cy="109.95" r="12.04" transform="translate(-47.63 121.76) rotate(-51.78)"/><circle class="cls-10" cx="101.62" cy="109.95" r="16.19" transform="translate(-12.27 12.77) rotate(-6.78)"/><circle class="cls-10" cx="101.62" cy="109.95" r="12.04" transform="translate(-47.63 121.76) rotate(-51.78)"/><circle class="cls-10" cx="101.62" cy="109.95" r="16.19" transform="translate(-12.27 12.77) rotate(-6.78)"/><circle class="cls-10" cx="101.62" cy="109.95" r="12.04" transform="translate(-47.63 121.76) rotate(-51.78)"/><circle class="cls-10" cx="101.62" cy="109.95" r="16.19" transform="translate(-12.27 12.77) rotate(-6.78)"/><circle class="cls-10" cx="101.62" cy="109.95" r="12.04" transform="translate(-47.63 121.76) rotate(-51.78)"/><circle class="cls-10" cx="101.62" cy="109.95" r="16.19" transform="translate(-12.27 12.77) rotate(-6.78)"/><circle class="cls-10" cx="101.62" cy="109.95" r="12.04" transform="translate(-47.63 121.76) rotate(-51.78)"/><path class="cls-10" d="m69.69,53.02c6.54-3.67,13.99-4.26,20.66-2.25.22.06.43.14.65.21.37.12.75.26,1.11.4,5.55,2.15,10.42,6.17,13.56,11.76l18.85,33.62c7.16,12.78,2.6,29-10.18,36.16-6.75,3.79-14.47,4.29-21.31,2.04-.37-.12-.75-.26-1.11-.4-5.55-2.15-10.42-6.17-13.56-11.76l-18.85-33.62c-7.16-12.78-2.6-29,10.18-36.16Z"/><path class="cls-10" d="m63.45,86.97c-5.95-10.61-2.16-24.07,8.45-30.02,1.75-.98,3.59-1.7,5.45-2.16l11.37,20.28c.56,1,1.83,1.36,2.83.8s1.35-1.82.79-2.82l-10.58-18.87c8.03-.33,15.96,3.75,20.16,11.23l11.62,20.72c-7.63-3.86-16.99-3.97-24.99.52-2.81,1.58-5.22,3.6-7.2,5.92l-7.94-14.15c-.56-1-1.82-1.35-2.82-.79s-1.36,1.82-.8,2.82l8.89,15.86c-2.05,3.48-3.29,7.38-3.62,11.4l-11.62-20.72Z"/><circle class="cls-10" cx="101.53" cy="109.8" r="22.05" transform="translate(-31.51 41.49) rotate(-20.06)"/><circle class="cls-10" cx="101.62" cy="109.95" r="16.19" transform="translate(-40.79 63.75) rotate(-29.28)"/><circle class="cls-10" cx="101.62" cy="109.95" r="12.04" transform="translate(-47.63 121.76) rotate(-51.78)"/><circle class="cls-10" cx="101.62" cy="109.95" r="16.19" transform="translate(-12.27 12.77) rotate(-6.78)"/><circle class="cls-10" cx="101.62" cy="109.95" r="12.04" transform="translate(-47.63 121.76) rotate(-51.78)"/><circle class="cls-10" cx="101.62" cy="109.95" r="16.19" transform="translate(-12.27 12.77) rotate(-6.78)"/><circle class="cls-10" cx="101.62" cy="109.95" r="12.04" transform="translate(-47.63 121.76) rotate(-51.78)"/><circle class="cls-10" cx="101.62" cy="109.95" r="16.19" transform="translate(-12.27 12.77) rotate(-6.78)"/><circle class="cls-10" cx="101.62" cy="109.95" r="12.04" transform="translate(-47.63 121.76) rotate(-51.78)"/><circle class="cls-10" cx="101.62" cy="109.95" r="16.19" transform="translate(-12.27 12.77) rotate(-6.78)"/><circle class="cls-10" cx="101.62" cy="109.95" r="12.04" transform="translate(-47.63 121.76) rotate(-51.78)"/><circle class="cls-10" cx="101.62" cy="109.95" r="16.19" transform="translate(-12.27 12.77) rotate(-6.78)"/><circle class="cls-10" cx="101.62" cy="109.95" r="12.04" transform="translate(-47.63 121.76) rotate(-51.78)"/><circle class="cls-10" cx="101.62" cy="109.95" r="16.19" transform="translate(-12.27 12.77) rotate(-6.78)"/><circle class="cls-10" cx="101.62" cy="109.95" r="12.04" transform="translate(-47.63 121.76) rotate(-51.78)"/><circle class="cls-10" cx="101.62" cy="109.95" r="16.19" transform="translate(-12.27 12.77) rotate(-6.78)"/><circle class="cls-10" cx="101.62" cy="109.95" r="12.04" transform="translate(-47.63 121.76) rotate(-51.78)"/><circle class="cls-10" cx="101.62" cy="109.95" r="16.19" transform="translate(-12.27 12.77) rotate(-6.78)"/><circle class="cls-10" cx="101.62" cy="109.95" r="12.04" transform="translate(-47.63 121.76) rotate(-51.78)"/><path class="cls-9" d="m69.69,53.02c6.54-3.67,13.99-4.26,20.66-2.25.22.06.43.14.65.21.37.12.75.26,1.11.4,5.55,2.15,10.42,6.17,13.56,11.76l18.85,33.62c7.16,12.78,2.6,29-10.18,36.16-6.75,3.79-14.47,4.29-21.31,2.04-.37-.12-.75-.26-1.11-.4-5.55-2.15-10.42-6.17-13.56-11.76l-18.85-33.62c-7.16-12.78-2.6-29,10.18-36.16Z"/><path class="cls-9" d="m63.45,86.97c-5.95-10.61-2.16-24.07,8.45-30.02,1.75-.98,3.59-1.7,5.45-2.16l11.37,20.28c.56,1,1.83,1.36,2.83.8s1.35-1.82.79-2.82l-10.58-18.87c8.03-.33,15.96,3.75,20.16,11.23l11.62,20.72c-7.63-3.86-16.99-3.97-24.99.52-2.81,1.58-5.22,3.6-7.2,5.92l-7.94-14.15c-.56-1-1.82-1.35-2.82-.79s-1.36,1.82-.8,2.82l8.89,15.86c-2.05,3.48-3.29,7.38-3.62,11.4l-11.62-20.72Z"/><circle class="cls-9" cx="101.53" cy="109.8" r="22.05" transform="translate(-31.51 41.49) rotate(-20.06)"/><path class="cls-10" d="m91.55,75.87c1-.56,1.35-1.82.79-2.82l-10.58-18.87c8.03-.33,15.96,3.75,20.16,11.23l11.62,20.72c-7.63-3.86-16.99-3.97-24.99.52-2.81,1.58-5.22,3.6-7.2,5.92l-7.94-14.15c-.56-1-1.82-1.35-2.82-.79s-1.36,1.82-.8,2.82l8.89,15.86c-2.05,3.48-3.29,7.38-3.62,11.4l-11.62-20.72c-5.95-10.61-2.16-24.07,8.45-30.02,1.75-.98,3.59-1.7,5.45-2.16l11.37,20.28c.56,1,1.83,1.36,2.83.8Z"/><path class="cls-12" d="m82.3,120.59c5.95,10.61,19.41,14.4,30.02,8.45,10.6-5.94,14.4-19.41,8.45-30.02-5.95-10.61-19.42-14.39-30.02-8.45-10.61,5.95-14.4,19.41-8.45,30.02Zm33.44-18.56c4.37,7.8,1.6,17.67-6.2,22.04-7.8,4.37-17.67,1.6-22.04-6.2-4.37-7.8-1.6-17.67,6.2-22.04,7.8-4.37,17.67-1.6,22.04,6.2Z"/><path class="cls-9" d="m87.49,117.87c4.37,7.8,14.24,10.58,22.04,6.2,7.8-4.37,10.58-14.24,6.2-22.04-4.37-7.8-14.24-10.58-22.04-6.2-7.8,4.37-10.58,14.24-6.2,22.04Zm24.63-13.81c3.25,5.79,1.18,13.15-4.61,16.4-5.79,3.25-13.15,1.18-16.4-4.61-3.25-5.79-1.18-13.15,4.61-16.4,5.79-3.25,13.15-1.18,16.4,4.61Z"/><circle class="cls-11" cx="101.62" cy="109.95" r="12.04" transform="translate(-40.79 63.75) rotate(-29.28)"/><polygon class="cls-8" points="54.6 76.81 59.86 73.7 73.49 85.57 69.48 67.02 79.09 75.39 76.59 63.81 93.01 54.11 124.65 107.63 116.9 112.21 106.4 103.07 106.68 104.36 109.72 118.37 100.67 110.5 102.84 120.52 86.25 130.33 54.6 76.81"/><path class="cls-9" d="m92.49,56.12l30.14,50.99-5.56,3.29-6.53-5.68-6.53-5.68,1.22,5.64h0s2.1,9.67,2.1,9.67l-.95-.83-8.09-7.04,2.27,10.48.61,2.83-14.42,8.52-30.14-50.99,3.07-1.82,8.09,7.04,8.09,7.04-2.01-9.3-.25-1.18-1.75-8.06,1.52,1.33,8.09,7.04-2.27-10.48-.95-4.39,14.24-8.42m1.04-4.04l-2.54,1.5-14.24,8.42-1.83,1.08.45,2.08.95,4.39.39,1.81-1.4-1.22-1.52-1.32-6.69-5.83,1.88,8.67,1.75,8.06.25,1.17.14.63-1.39-1.21-8.09-7.04-1.6-1.4-1.83,1.08-3.07,1.82-2.54,1.5,1.5,2.54,30.14,50.99,1.5,2.54,2.54-1.5,14.42-8.52,1.83-1.08-.45-2.08-.61-2.83-.39-1.81,1.4,1.22.96.83,6.69,5.81-1.88-8.66-1.44-6.63,6.35,5.53,1.6,1.4,1.83-1.08,5.56-3.29,2.54-1.5-1.5-2.54-30.14-50.99-1.5-2.54h0Z"/><polygon class="cls-6" points="85.62 118.74 90.08 124.58 87.12 117.86 84.16 111.14 84.16 111.14 79.7 105.3 75.24 99.46 78.2 106.18 81.17 112.9 81.17 112.9 85.62 118.74"/><polygon class="cls-7" points="107.51 93.47 113.73 101.61 109.6 92.24 105.46 82.86 105.46 82.86 99.24 74.72 93.02 66.57 97.16 75.95 101.29 85.33 101.29 85.33 107.51 93.47"/><polygon class="cls-5" points="88.06 97.98 91.42 101.84 89.65 97.04 87.89 92.24 87.89 92.24 84.54 88.38 81.18 84.52 82.95 89.32 84.71 94.12 84.71 94.12 88.06 97.98"/><line class="cls-2" x1="90.86" y1="78.3" x2="83.01" y2="65.02"/><line class="cls-2" x1="100.58" y1="120.13" x2="93.42" y2="108.01"/><line class="cls-2" x1="60.29" y1="74.18" x2="70.19" y2="90.92"/><line class="cls-2" x1="119.26" y1="110.96" x2="115.95" y2="105.36"/><line class="cls-2" x1="87.88" y1="57.87" x2="89.75" y2="61.04"/><line class="cls-2" x1="107.34" y1="114.35" x2="99.93" y2="101.81"/><circle class="cls-10" cx="82.69" cy="72.42" r="16.19" transform="translate(-27.17 68.84) rotate(-39.34)"/><circle class="cls-10" cx="82.69" cy="72.42" r="12.04" transform="translate(2.47 147.57) rotate(-84.34)"/><circle class="cls-10" cx="82.69" cy="72.42" r="16.19" transform="translate(-27.17 68.84) rotate(-39.34)"/><circle class="cls-10" cx="82.69" cy="72.42" r="12.04" transform="translate(2.47 147.57) rotate(-84.34)"/><circle class="cls-10" cx="82.69" cy="72.42" r="16.19" transform="translate(-27.17 68.84) rotate(-39.34)"/><circle class="cls-10" cx="82.69" cy="72.42" r="12.04" transform="translate(2.47 147.57) rotate(-84.34)"/><circle class="cls-10" cx="82.69" cy="72.42" r="16.19" transform="translate(-27.17 68.84) rotate(-39.34)"/><circle class="cls-10" cx="82.69" cy="72.42" r="12.04" transform="translate(2.47 147.57) rotate(-84.34)"/><circle class="cls-10" cx="82.69" cy="72.42" r="16.19" transform="translate(-27.17 68.84) rotate(-39.34)"/><circle class="cls-10" cx="82.69" cy="72.42" r="12.04" transform="translate(2.47 147.57) rotate(-84.34)"/><circle class="cls-10" cx="82.69" cy="72.42" r="16.19" transform="translate(-27.17 68.84) rotate(-39.34)"/><circle class="cls-10" cx="82.69" cy="72.42" r="12.04" transform="translate(2.47 147.57) rotate(-84.34)"/><circle class="cls-10" cx="82.69" cy="72.42" r="16.19" transform="translate(-27.17 68.84) rotate(-39.34)"/><circle class="cls-10" cx="82.69" cy="72.42" r="12.04" transform="translate(2.47 147.57) rotate(-84.34)"/><circle class="cls-10" cx="82.69" cy="72.42" r="16.19" transform="translate(-27.17 68.84) rotate(-39.34)"/><circle class="cls-10" cx="82.69" cy="72.42" r="12.04" transform="translate(2.47 147.57) rotate(-84.34)"/><path class="cls-10" d="m140.24,103.22c-3.54,6.61-9.5,11.12-16.2,13.02-.22.07-.44.12-.66.18-.38.1-.77.18-1.16.26-5.84,1.18-12.1.41-17.75-2.61l-33.98-18.19c-12.92-6.91-17.8-23.04-10.88-35.95,3.65-6.83,9.89-11.41,16.86-13.19.38-.1.77-.19,1.16-.26,5.84-1.18,12.1-.41,17.75,2.61l33.98,18.19c12.92,6.91,17.8,23.04,10.89,35.95Z"/><path class="cls-10" d="m127.23,71.25c10.72,5.74,14.77,19.13,9.04,29.85-.95,1.77-2.12,3.37-3.43,4.76l-20.5-10.97c-1.01-.54-2.27-.16-2.81.85s-.16,2.26.85,2.8l19.08,10.21c-6.59,4.6-15.47,5.43-23.03,1.38l-20.94-11.21c8.51-.86,16.46-5.8,20.78-13.89,1.52-2.84,2.46-5.84,2.88-8.86l14.31,7.66c1.01.54,2.26.16,2.8-.85s.17-2.27-.85-2.81l-16.03-8.58c-.15-4.04-1.2-7.99-3.09-11.55l20.94,11.21Z"/><circle class="cls-10" cx="82.84" cy="72.5" r="22.05" transform="translate(-25.06 94.32) rotate(-52.63)"/><circle class="cls-10" cx="82.69" cy="72.42" r="16.19" transform="translate(-20.18 111.15) rotate(-61.84)"/><circle class="cls-10" cx="82.69" cy="72.42" r="12.04" transform="translate(2.47 147.57) rotate(-84.34)"/><circle class="cls-10" cx="82.69" cy="72.42" r="16.19" transform="translate(-27.17 68.84) rotate(-39.34)"/><circle class="cls-10" cx="82.69" cy="72.42" r="12.04" transform="translate(2.47 147.57) rotate(-84.34)"/><circle class="cls-10" cx="82.69" cy="72.42" r="16.19" transform="translate(-27.17 68.84) rotate(-39.34)"/><circle class="cls-10" cx="82.69" cy="72.42" r="12.04" transform="translate(2.47 147.57) rotate(-84.34)"/><circle class="cls-10" cx="82.69" cy="72.42" r="16.19" transform="translate(-27.17 68.84) rotate(-39.34)"/><circle class="cls-10" cx="82.69" cy="72.42" r="12.04" transform="translate(2.47 147.57) rotate(-84.34)"/><circle class="cls-10" cx="82.69" cy="72.42" r="16.19" transform="translate(-27.17 68.84) rotate(-39.34)"/><circle class="cls-10" cx="82.69" cy="72.42" r="12.04" transform="translate(2.47 147.57) rotate(-84.34)"/><circle class="cls-10" cx="82.69" cy="72.42" r="16.19" transform="translate(-27.17 68.84) rotate(-39.34)"/><circle class="cls-10" cx="82.69" cy="72.42" r="12.04" transform="translate(2.47 147.57) rotate(-84.34)"/><circle class="cls-10" cx="82.69" cy="72.42" r="16.19" transform="translate(-27.17 68.84) rotate(-39.34)"/><circle class="cls-10" cx="82.69" cy="72.42" r="12.04" transform="translate(2.47 147.57) rotate(-84.34)"/><circle class="cls-10" cx="82.69" cy="72.42" r="16.19" transform="translate(-27.17 68.84) rotate(-39.34)"/><circle class="cls-10" cx="82.69" cy="72.42" r="12.04" transform="translate(2.47 147.57) rotate(-84.34)"/><circle class="cls-10" cx="82.69" cy="72.42" r="16.19" transform="translate(-27.17 68.84) rotate(-39.34)"/><circle class="cls-10" cx="82.69" cy="72.42" r="12.04" transform="translate(2.47 147.57) rotate(-84.34)"/><path class="cls-9" d="m140.24,103.22c-3.54,6.61-9.5,11.12-16.2,13.02-.22.07-.44.12-.66.18-.38.1-.77.18-1.16.26-5.84,1.18-12.1.41-17.75-2.61l-33.98-18.19c-12.92-6.91-17.8-23.04-10.88-35.95,3.65-6.83,9.89-11.41,16.86-13.19.38-.1.77-.19,1.16-.26,5.84-1.18,12.1-.41,17.75,2.61l33.98,18.19c12.92,6.91,17.8,23.04,10.89,35.95Z"/><path class="cls-9" d="m127.23,71.25c10.72,5.74,14.77,19.13,9.04,29.85-.95,1.77-2.12,3.37-3.43,4.76l-20.5-10.97c-1.01-.54-2.27-.16-2.81.85s-.16,2.26.85,2.8l19.08,10.21c-6.59,4.6-15.47,5.43-23.03,1.38l-20.94-11.21c8.51-.86,16.46-5.8,20.78-13.89,1.52-2.84,2.46-5.84,2.88-8.86l14.31,7.66c1.01.54,2.26.16,2.8-.85s.17-2.27-.85-2.81l-16.03-8.58c-.15-4.04-1.2-7.99-3.09-11.55l20.94,11.21Z"/><circle class="cls-9" cx="82.84" cy="72.5" r="22.05" transform="translate(-25.06 94.32) rotate(-52.63)"/><path class="cls-10" d="m109.52,95.73c-.54,1.01-.16,2.26.85,2.8l19.08,10.21c-6.59,4.6-15.47,5.43-23.03,1.38l-20.94-11.21c8.51-.86,16.46-5.8,20.78-13.89,1.52-2.84,2.46-5.84,2.88-8.86l14.31,7.66c1.01.54,2.26.16,2.8-.85s.17-2.27-.85-2.81l-16.03-8.58c-.15-4.04-1.2-7.99-3.09-11.55l20.94,11.21c10.72,5.74,14.77,19.13,9.04,29.85-.95,1.77-2.12,3.37-3.43,4.76l-20.5-10.97c-1.01-.54-2.27-.16-2.81.85Z"/><path class="cls-12" d="m93.25,53.06c-10.72-5.74-24.11-1.69-29.85,9.04-5.74,10.72-1.69,24.11,9.04,29.85s24.11,1.68,29.85-9.04c5.74-10.72,1.69-24.11-9.04-29.85Zm-18.19,33.64c-7.88-4.22-10.85-14.03-6.63-21.91,4.22-7.88,14.03-10.85,21.91-6.63s10.85,14.03,6.63,21.91c-4.22,7.88-14.03,10.85-21.91,6.63Z"/><path class="cls-9" d="m90.33,58.14c-7.88-4.22-17.69-1.25-21.91,6.63-4.22,7.88-1.25,17.69,6.63,21.91,7.88,4.22,17.69,1.25,21.91-6.63,4.22-7.88,1.25-17.69-6.63-21.91Zm-13.32,24.89c-5.85-3.13-8.07-10.45-4.94-16.3,3.13-5.85,10.45-8.07,16.3-4.94,5.85,3.13,8.07,10.45,4.94,16.3-3.13,5.85-10.45,8.07-16.3,4.94Z"/><circle class="cls-11" cx="82.69" cy="72.42" r="12.04" transform="translate(-20.18 111.15) rotate(-61.84)"/><polygon class="cls-8" points="9.45 65.4 15.06 63 27.05 76.53 25.47 57.62 33.92 67.16 32.93 55.36 50.47 47.86 74.92 105.03 66.65 108.57 57.41 98.14 57.53 99.46 58.72 113.74 54.94 109.48 50.77 104.77 51.63 114.99 33.9 122.57 9.45 65.4"/><path class="cls-9" d="m49.69,49.79l23.29,54.46-5.94,2.54-5.74-6.48-5.74-6.48.48,5.75h0s.83,9.86.83,9.86l-.84-.95-7.11-8.03.89,10.68.24,2.89-15.4,6.58-23.29-54.46,3.28-1.4,7.11,8.03,7.11,8.03-.79-9.48-.1-1.2-.69-8.22,1.34,1.51,7.11,8.03-.89-10.69-.37-4.48,15.21-6.5m1.55-3.87l-2.71,1.16-15.21,6.5-1.95.84.18,2.12.37,4.48.15,1.85-1.23-1.39-1.34-1.51-5.88-6.65.74,8.84.69,8.22.1,1.2.05.65-1.23-1.38-7.11-8.03-1.41-1.59-1.96.84-3.28,1.4-2.71,1.16,1.16,2.71,23.29,54.46,1.16,2.71,2.71-1.16,15.4-6.58,1.96-.84-.18-2.12-.24-2.89-.15-1.84,1.23,1.39.84.95,5.88,6.62-.74-8.83-.57-6.76,5.58,6.3,1.41,1.59,1.95-.84,5.94-2.54,2.71-1.16-1.16-2.71-23.29-54.46-1.16-2.71h0Z"/><polygon class="cls-6" points="35.8 106.12 39.47 112.48 37.4 105.44 35.33 98.39 35.33 98.39 31.66 92.02 28 85.66 30.07 92.71 32.14 99.75 32.13 99.76 35.8 106.12"/><polygon class="cls-7" points="59.76 88.77 64.87 97.65 61.98 87.81 59.1 77.98 59.1 77.98 53.98 69.1 48.87 60.22 51.76 70.05 54.64 79.89 54.64 79.89 59.76 88.77"/><polygon class="cls-5" points="43.31 90.2 46.14 94.46 45.01 89.47 43.88 84.49 43.89 84.49 41.06 80.23 38.23 75.97 39.36 80.95 40.49 85.94 40.48 85.94 43.31 90.2"/><line class="cls-2" x1="50.55" y1="81.1" x2="44.49" y2="66.92"/><line class="cls-2" x1="49.44" y1="114.31" x2="43.9" y2="101.36"/><line class="cls-2" x1="15.43" y1="63.53" x2="23.08" y2="81.41"/><line class="cls-2" x1="69.14" y1="107.63" x2="66.59" y2="101.65"/><line class="cls-2" x1="44.89" y1="50.93" x2="46.34" y2="54.31"/><line class="cls-2" x1="56.89" y1="109.45" x2="51.16" y2="96.06"/><circle class="cls-10" cx="68.29" cy="121.1" r="16.19" transform="translate(-65.63 83.76) rotate(-45)"/><circle class="cls-10" cx="68.29" cy="121.1" r="12.04" transform="translate(-3.27 1.9) rotate(-1.56)"/><circle class="cls-10" cx="68.29" cy="121.1" r="16.19" transform="translate(-65.63 83.76) rotate(-45)"/><circle class="cls-10" cx="68.29" cy="121.1" r="12.04" transform="translate(-3.27 1.9) rotate(-1.56)"/><circle class="cls-10" cx="68.29" cy="121.1" r="16.19" transform="translate(-65.63 83.76) rotate(-45)"/><circle class="cls-10" cx="68.29" cy="121.1" r="12.04" transform="translate(-3.27 1.9) rotate(-1.56)"/><circle class="cls-10" cx="68.29" cy="121.1" r="16.19" transform="translate(-65.63 83.76) rotate(-45)"/><circle class="cls-10" cx="68.29" cy="121.1" r="12.04" transform="translate(-3.27 1.9) rotate(-1.56)"/><circle class="cls-10" cx="68.29" cy="121.1" r="16.19" transform="translate(-65.63 83.76) rotate(-45)"/><circle class="cls-10" cx="68.29" cy="121.1" r="12.04" transform="translate(-3.27 1.9) rotate(-1.56)"/><circle class="cls-10" cx="68.29" cy="121.1" r="16.19" transform="translate(-65.63 83.76) rotate(-45)"/><circle class="cls-10" cx="68.29" cy="121.1" r="12.04" transform="translate(-3.27 1.9) rotate(-1.56)"/><circle class="cls-10" cx="68.29" cy="121.1" r="16.19" transform="translate(-65.63 83.76) rotate(-45)"/><circle class="cls-10" cx="68.29" cy="121.1" r="12.04" transform="translate(-3.27 1.9) rotate(-1.56)"/><circle class="cls-10" cx="68.29" cy="121.1" r="16.19" transform="translate(-65.63 83.76) rotate(-45)"/><circle class="cls-10" cx="68.29" cy="121.1" r="12.04" transform="translate(-3.27 1.9) rotate(-1.56)"/><path class="cls-10" d="m7.33,97.77c2.68-7,8.02-12.22,14.44-14.95.21-.09.42-.17.63-.26.37-.14.74-.28,1.11-.4,5.64-1.9,11.96-1.93,17.94.36l36,13.78c13.68,5.24,20.55,20.62,15.31,34.3-2.77,7.23-8.38,12.56-15.07,15.21-.37.14-.74.28-1.11.4-5.64,1.9-11.96,1.93-17.94-.36l-36-13.78c-13.68-5.24-20.55-20.62-15.31-34.3Z"/><path class="cls-10" d="m24.26,127.86c-11.36-4.35-17.06-17.12-12.71-28.47.72-1.88,1.68-3.6,2.81-5.15l21.72,8.31c1.07.41,2.27-.13,2.68-1.2s-.13-2.26-1.2-2.67l-20.21-7.73c5.96-5.39,14.67-7.33,22.67-4.27l22.18,8.49c-8.34,1.92-15.6,7.82-18.88,16.39-1.15,3.01-1.71,6.1-1.74,9.16l-15.16-5.8c-1.07-.41-2.26.13-2.67,1.19s.12,2.27,1.19,2.68l16.98,6.5c.66,3.99,2.19,7.78,4.52,11.08l-22.18-8.49Z"/><circle class="cls-10" cx="68.14" cy="121.04" r="22.05" transform="translate(-70.75 119.14) rotate(-59.84)"/><circle class="cls-10" cx="68.29" cy="121.1" r="16.19" transform="translate(-69.21 141.6) rotate(-69.06)"/><circle class="cls-10" cx="68.29" cy="121.1" r="12.04" transform="translate(-3.27 1.9) rotate(-1.56)"/><circle class="cls-10" cx="68.29" cy="121.1" r="16.19" transform="translate(-65.63 83.76) rotate(-45)"/><circle class="cls-10" cx="68.29" cy="121.1" r="12.04" transform="translate(-3.27 1.9) rotate(-1.56)"/><circle class="cls-10" cx="68.29" cy="121.1" r="16.19" transform="translate(-65.63 83.76) rotate(-45)"/><circle class="cls-10" cx="68.29" cy="121.1" r="12.04" transform="translate(-3.27 1.9) rotate(-1.56)"/><circle class="cls-10" cx="68.29" cy="121.1" r="16.19" transform="translate(-65.63 83.76) rotate(-45)"/><circle class="cls-10" cx="68.29" cy="121.1" r="12.04" transform="translate(-3.27 1.9) rotate(-1.56)"/><circle class="cls-10" cx="68.29" cy="121.1" r="16.19" transform="translate(-65.63 83.76) rotate(-45)"/><circle class="cls-10" cx="68.29" cy="121.1" r="12.04" transform="translate(-3.27 1.9) rotate(-1.56)"/><circle class="cls-10" cx="68.29" cy="121.1" r="16.19" transform="translate(-65.63 83.76) rotate(-45)"/><circle class="cls-10" cx="68.29" cy="121.1" r="12.04" transform="translate(-3.27 1.9) rotate(-1.56)"/><circle class="cls-10" cx="68.29" cy="121.1" r="16.19" transform="translate(-65.63 83.76) rotate(-45)"/><circle class="cls-10" cx="68.29" cy="121.1" r="12.04" transform="translate(-3.27 1.9) rotate(-1.56)"/><circle class="cls-10" cx="68.29" cy="121.1" r="16.19" transform="translate(-65.63 83.76) rotate(-45)"/><circle class="cls-10" cx="68.29" cy="121.1" r="12.04" transform="translate(-3.27 1.9) rotate(-1.56)"/><circle class="cls-10" cx="68.29" cy="121.1" r="16.19" transform="translate(-65.63 83.76) rotate(-45)"/><circle class="cls-10" cx="68.29" cy="121.1" r="12.04" transform="translate(-3.27 1.9) rotate(-1.56)"/><path class="cls-9" d="m7.33,97.77c2.68-7,8.02-12.22,14.44-14.95.21-.09.42-.17.63-.26.37-.14.74-.28,1.11-.4,5.64-1.9,11.96-1.93,17.94.36l36,13.78c13.68,5.24,20.55,20.62,15.31,34.3-2.77,7.23-8.38,12.56-15.07,15.21-.37.14-.74.28-1.11.4-5.64,1.9-11.96,1.93-17.94-.36l-36-13.78c-13.68-5.24-20.55-20.62-15.31-34.3Z"/><path class="cls-9" d="m24.26,127.86c-11.36-4.35-17.06-17.12-12.71-28.47.72-1.88,1.68-3.6,2.81-5.15l21.72,8.31c1.07.41,2.27-.13,2.68-1.2s-.13-2.26-1.2-2.67l-20.21-7.73c5.96-5.39,14.67-7.33,22.67-4.27l22.18,8.49c-8.34,1.92-15.6,7.82-18.88,16.39-1.15,3.01-1.71,6.1-1.74,9.16l-15.16-5.8c-1.07-.41-2.26.13-2.67,1.19s.12,2.27,1.19,2.68l16.98,6.5c.66,3.99,2.19,7.78,4.52,11.08l-22.18-8.49Z"/><circle class="cls-9" cx="68.14" cy="121.04" r="22.05" transform="translate(-70.75 119.14) rotate(-59.84)"/><path class="cls-10" d="m38.75,101.34c.41-1.07-.13-2.26-1.2-2.67l-20.21-7.73c5.96-5.39,14.67-7.33,22.67-4.27l22.18,8.49c-8.34,1.92-15.6,7.82-18.88,16.39-1.15,3.01-1.71,6.1-1.74,9.16l-15.16-5.8c-1.07-.41-2.26.13-2.67,1.19s.12,2.27,1.19,2.68l16.98,6.5c.66,3.99,2.19,7.78,4.52,11.08l-22.18-8.49c-11.36-4.35-17.06-17.12-12.71-28.47.72-1.88,1.68-3.6,2.81-5.15l21.72,8.31c1.07.41,2.27-.13,2.68-1.2Z"/><path class="cls-12" d="m60.26,141.63c11.36,4.35,24.13-1.36,28.47-12.71,4.34-11.35-1.36-24.13-12.71-28.47-11.36-4.35-24.13,1.36-28.47,12.71-4.35,11.36,1.36,24.13,12.71,28.47Zm13.82-35.65c8.35,3.2,12.53,12.55,9.33,20.91-3.2,8.35-12.55,12.53-20.91,9.33-8.35-3.2-12.53-12.55-9.33-20.91,3.2-8.35,12.55-12.53,20.91-9.33Z"/><path class="cls-9" d="m62.51,136.22c8.35,3.2,17.71-.98,20.91-9.33,3.2-8.35-.98-17.71-9.33-20.91-8.35-3.2-17.71.98-20.91,9.33-3.2,8.35.98,17.71,9.33,20.91Zm10.09-26.37c6.2,2.37,9.32,9.35,6.94,15.55s-9.35,9.32-15.55,6.94c-6.2-2.37-9.32-9.35-6.94-15.55,2.37-6.2,9.35-9.32,15.55-6.94Z"/><circle class="cls-11" cx="68.29" cy="121.1" r="12.04" transform="translate(-69.21 141.6) rotate(-69.06)"/><path class="cls-4" d="m120.45,36.53c-1.76,0-3.67-.17-5.66-.49l-.57-.09-.3-.5c-4.49-7.43-5.41-14.01-2.75-19.56,5.53-11.55,24.5-14.23,25.3-14.34l1.11-.15.28,1.09c.19.74,4.48,18.17-3.06,27.86-3.2,4.11-8.02,6.19-14.33,6.19h0Z"/><path class="cls-9" d="m136.63,2.79s8.22,32.48-16.18,32.48c-1.66,0-3.48-.15-5.46-.47C98.74,7.9,136.63,2.79,136.63,2.79m1.89-2.79l-2.23.3c-.83.11-20.44,2.89-26.27,15.04-2.86,5.96-1.91,12.95,2.81,20.76l.6,1,1.15.19c2.06.34,4.04.51,5.87.51,6.72,0,11.88-2.25,15.33-6.68,7.92-10.17,3.48-28.18,3.29-28.94l-.55-2.18h0Z"/><line class="cls-3" x1="115.16" y1="34.54" x2="130.16" y2="12.36"/><line class="cls-3" x1="118.93" y1="28.97" x2="129.04" y2="27.02"/><line class="cls-3" x1="122.28" y1="24.01" x2="120.59" y2="15.25"/></g></svg>